<svg width="5401" height="5745" viewBox="0 0 5401 5745" fill="none" xmlns="http://www.w3.org/2000/svg">
<path d="M4227.5 4863.11C4088.3 4867.11 4002.17 4789.77 3976.5 4750.61C3775.7 4902.21 3790.5 5134.44 3823 5231.61C5030.5 5564.11 5281.5 4929.61 5077 4366.61C4872.5 3803.61 5286.5 3752.61 5389 3404.61C5491.5 3056.61 4903 2647.61 4544.5 3108.11C4186 3568.61 4386 4080.11 4462.5 4469.11C4539 4858.11 4401.5 4858.11 4227.5 4863.11Z" fill="#FFB570"/>
<mask id="mask0" mask-type="alpha" maskUnits="userSpaceOnUse" x="3803" y="2902" width="1598" height="2422">
<path d="M4227.5 4863.11C4088.3 4867.11 4002.17 4789.77 3976.5 4750.61C3775.7 4902.21 3790.5 5134.44 3823 5231.61C5030.5 5564.11 5281.5 4929.61 5077 4366.61C4872.5 3803.61 5286.5 3752.61 5389 3404.61C5491.5 3056.61 4903 2647.61 4544.5 3108.11C4186 3568.61 4386 4080.11 4462.5 4469.11C4539 4858.11 4401.5 4858.11 4227.5 4863.11Z" fill="#FFB570"/>
</mask>
<g mask="url(#mask0)">
<path d="M4103 5352.11C4197.5 5132.11 4200 4817.11 4203 4800.11L4394.5 4771.11C4451.7 4803.11 4567 5160.11 4617.5 5334.61L4103 5352.11Z" fill="#EC7F45"/>
<path d="M4103 4800.11C4061.83 4773.27 3977.3 4717.31 3968.5 4708.11L3725 5189.11L3897 5289.11C3965.8 5309.91 4063 4971.77 4103 4800.11Z" fill="#EC7F45"/>
<path d="M5047 5103.11C4877.8 4851.51 4600.5 4750.27 4483 4731.11L4394.5 4476.61C4689.7 4314.21 5034.5 4469.94 5170 4568.11C5254.8 4735.31 5123.33 4994.44 5047 5103.11Z" fill="#EC7F45"/>
<path d="M5135.5 4182.11C4695 3962.11 4349 4053.11 4329 4050.11L4308.5 3595.61C4660.9 3527.21 4978 3767.11 5092.5 3895.61C5110.67 3987.27 5144.7 4172.91 5135.5 4182.11Z" fill="#EC7F45"/>
<path d="M5373 2854.61C5103 2657.81 4634.83 2959.61 4434.5 3135.11C4935.5 3209.11 5135.5 3564.11 5284.5 3844.11C5411.33 3603.77 5643 3051.41 5373 2854.61Z" fill="#EC7F45"/>
</g>
<path d="M3369 661.105C2884.2 -84.0948 2729 159.272 2712 374.105C2070.8 714.505 1498.17 583.272 1292 475.105C1268.5 411.605 1234 287.605 1104.5 495.105C380.9 1663.11 747.667 2619.11 1021.5 2951.11C786.7 3247.11 302.333 4677.77 96 5337.11C1210.33 5351.94 3508.1 5342.31 3732.5 5337.11C3956.9 5331.91 4064.33 4748.27 4090 4457.11C4192 3321.61 3472.55 2957.61 3567 2766.11C3803 2287.61 3975 1592.61 3369 661.105Z" fill="#FFB570"/>
<path fill-rule="evenodd" clip-rule="evenodd" d="M1022.78 3915.88C1035.98 4445.99 1220.18 5268.95 1896.78 5093.61C2216.33 5010.79 2371.74 4739.72 2432.45 4413.61C2428.63 4550.61 2452.9 4853.21 2580.5 4967.61C2523.36 4983.44 2413.76 5081.01 2432.45 5344.61H1022.78V3915.88Z" fill="#F79F60"/>
<path d="M2411 4163.69C2411 3486.37 2250.27 3325.11 1575.19 3325.11H1160.5V5744.11H1575.19C2250.27 5744.11 2411 5582.84 2411 4905.52V4163.69Z" fill="#3891F7"/>
<mask id="mask1" mask-type="alpha" maskUnits="userSpaceOnUse" x="102" y="157" width="3998" height="5188">
<path d="M3369 660.805C2884.2 -84.3946 2729 158.972 2712 373.805C2070.8 714.205 1498.17 582.972 1292 474.806C1268.5 411.306 1234 287.306 1104.5 494.806C380.9 1662.81 747.667 2618.81 1021.5 2950.81C786.7 3246.81 308.833 4677.47 102.5 5336.81C1216.83 5351.64 3508.1 5342.01 3732.5 5336.81C3956.9 5331.61 4064.33 4747.97 4090 4456.81C4192 3321.31 3472.55 2957.31 3567 2765.81C3803 2287.31 3975 1592.31 3369 660.805Z" fill="#FFB570"/>
</mask>
<g mask="url(#mask1)">
<mask id="mask2" mask-type="alpha" maskUnits="userSpaceOnUse" x="2330" y="3705" width="774" height="857">
<path d="M2552.76 3746.11C2426.26 3729.61 2334.76 3836.61 2418.76 3896.61C2502.76 3956.61 2505.26 4008.11 2439.76 4084.61C2376.82 4158.12 2292.19 4328.12 2467.11 4283.18C2474.72 4280.16 2482.35 4277.93 2489.76 4276.61C2481.77 4279.17 2474.23 4281.35 2467.11 4283.18C2414.17 4304.16 2362.16 4362.9 2389.26 4413.61C2400.93 4435.44 2418.06 4445.65 2439.76 4448.91C2475.71 4454.32 2524.21 4440.64 2581.26 4429.11C2429.94 4560.99 2747.21 4586.88 3071 4358.75C3045.8 3987.26 2764.5 3790.18 2627 3738.07C2603.97 3745.7 2579.24 3748.73 2552.76 3746.11Z" fill="#C4C4C4"/>
<path d="M2467.11 4283.18C2292.19 4328.12 2376.82 4158.12 2439.76 4084.61C2505.26 4008.11 2502.76 3956.61 2418.76 3896.61C2334.76 3836.61 2426.26 3729.61 2552.76 3746.11C2579.24 3748.73 2603.97 3745.7 2627 3738.07C2764.5 3790.18 3045.8 3987.26 3071 4358.75C2747.21 4586.88 2429.94 4560.99 2581.26 4429.11C2524.21 4440.64 2475.71 4454.32 2439.76 4448.91C2418.06 4445.65 2400.93 4435.44 2389.26 4413.61C2362.16 4362.9 2414.17 4304.16 2467.11 4283.18ZM2467.11 4283.18C2474.72 4280.16 2482.35 4277.93 2489.76 4276.61C2481.77 4279.17 2474.23 4281.35 2467.11 4283.18Z" stroke="black" stroke-width="65" stroke-linecap="round" stroke-linejoin="round"/>
</mask>
<g mask="url(#mask2)">
<path d="M3193 4424.08C3109.14 3939.92 2781.47 3718.76 2628.11 3668.71C2023.11 3514.01 2087.82 4424.08 2423 4638.98C2691.14 4810.89 3048.06 4567.34 3193 4424.08Z" fill="#FDEACB"/>
</g>
<path d="M2476.62 4583.61C2591.29 4695.27 3046.62 4804.61 3444.62 3993.11C3268.83 4221.62 2834.03 4573.54 2519 4497.6L2509.5 4461.61L2473.12 4483.11C2471 4517.77 2471.74 4539.74 2476.62 4583.61Z" fill="#F79F5D"/>
<path d="M2885.76 3262.61C2862.26 3432.44 2762.76 3766.91 2552.76 3746.11C2426.26 3729.61 2334.76 3836.61 2418.76 3896.61C2502.76 3956.61 2505.26 4008.11 2439.76 4084.61C2374.26 4161.11 2285.26 4342.11 2489.76 4276.61C2430.76 4287.11 2358.26 4355.61 2389.26 4413.61C2400.93 4435.44 2418.06 4445.65 2439.76 4448.91M3463.26 3896.61C3117.76 4589.11 2363.26 4619.11 2581.26 4429.11C2524.21 4440.64 2475.71 4454.31 2439.76 4448.91M2439.76 4448.91C2435.43 4575.81 2457.66 4855.91 2581.26 4961.11M2418.76 5329.61C2413.6 5113.61 2534.26 4750.71 3058.26 5027.11" stroke="#EC7F45" stroke-width="65" stroke-linecap="round" stroke-linejoin="round"/>
<path d="M945.15 1597.28C889.386 1511.12 828.978 1418.73 786.419 1355.88C759.756 1316.51 718.225 1324.8 705.291 1370.56L645.961 1580.45C634.622 1620.57 659.614 1661.9 700.405 1670.49L870.044 1706.22C932.508 1719.38 979.832 1650.87 945.15 1597.28Z" fill="#EC7F45"/>
<path d="M841.158 2276.71L723.991 2269.39C682.541 2266.8 647.5 2299.71 647.5 2341.25V2458.41C647.5 2521.44 722.76 2554.05 768.744 2510.94L885.911 2401.1C931.947 2357.94 904.138 2280.65 841.158 2276.71Z" fill="#EC7F45"/>
<path d="M3246.7 1416.16L3530.22 1083.72C3561.51 1047.03 3619.32 1050.88 3645.48 1091.39L3823.25 1366.7C3852.05 1411.31 3824.31 1470.68 3771.61 1477.21L3310.33 1534.34C3245.15 1542.41 3204.08 1466.14 3246.7 1416.16Z" fill="#EC7F45"/>
<path d="M3883.77 1926.32L3444.43 1976.5C3379.65 1983.9 3357.28 2066.73 3409.54 2105.73L3740.46 2352.73C3779.11 2381.58 3834.63 2365.01 3851.16 2319.7L3959.58 2022.53C3977.92 1972.26 3936.94 1920.25 3883.77 1926.32Z" fill="#EC7F45"/>
</g>
<path d="M2898.12 419.933C2915.71 396.153 2951.29 396.153 2968.88 419.933L3104.6 603.441C3126.09 632.483 3105.35 673.605 3069.23 673.605H2797.77C2761.65 673.605 2740.91 632.483 2762.4 603.441L2898.12 419.933Z" fill="#EC7F45"/>
<path d="M1195.26 552.31C1204.94 524.359 1238.88 513.723 1262.78 531.157L1447.16 665.69C1476.35 686.982 1468.86 732.422 1434.39 743.222L1175.34 824.383C1140.87 835.183 1108.79 802.14 1120.61 768.004L1195.26 552.31Z" fill="#EC7F45"/>
<path d="M1183 653.605C1279.67 399.272 1601.98 -7.49501 2124.78 0.104986C2592.28 0.104986 2750.5 318.105 2714 372.605C2684.8 416.205 2629.95 585.605 2601.28 653.605L1509.5 653.605C1383.33 726.605 1131 863.405 1131 826.605C1131 789.805 1165.67 695.939 1183 653.605Z" fill="#528ED6"/>
<path d="M1035.78 1102.61C872.181 1047.81 1047.28 857.772 1155.28 769.605C1566.48 459.605 2289.83 561.605 2602 652.105C2547.5 815.605 2260.78 1125.61 1984.28 1043.61C1276.78 911.605 1240.28 1171.11 1035.78 1102.61Z" fill="#63A5F7"/>
<circle cx="2711" cy="1887.11" r="551" fill="#F7D3A5"/>
<circle cx="2710.5" cy="1900.61" r="354" fill="#FEFFFE" stroke="#313944" stroke-width="89"/>
<circle cx="2664" cy="1979.11" r="249" fill="#313944"/>
<circle cx="2846.5" cy="1817.61" r="87.5" fill="#FEFFFE"/>
<circle cx="1496.5" cy="2039.61" r="354" fill="#FEFFFE" stroke="#313944" stroke-width="89"/>
<circle cx="1450" cy="2118.11" r="249" fill="#313944"/>
<circle cx="1632.5" cy="1956.61" r="87.5" fill="#FEFFFE"/>
<path d="M1895 2584.61C1950.17 2625.44 2098 2670.31 2248 2523.11" stroke="#B55942" stroke-width="58" stroke-linecap="round" stroke-linejoin="round"/>
<path d="M1877.09 2308.8C1894.33 2289.19 1924.21 2287.26 1943.82 2304.5L2019.52 2371.05C2030.41 2380.62 2036.36 2394.61 2035.72 2409.1C2033.92 2449.43 1986.03 2469.52 1955.99 2442.54L1881.01 2375.19C1861.73 2357.87 1859.98 2328.26 1877.09 2308.8Z" fill="#B55942"/>
<path d="M2157.76 2258.74C2175.78 2276.76 2176.97 2305.58 2160.52 2325.03L2053.53 2451.46C2032.02 2476.88 1993.19 2477.96 1970.3 2453.77C1949.5 2431.8 1949.97 2397.26 1971.37 2375.86L2088.48 2258.74C2107.61 2239.61 2138.63 2239.61 2157.76 2258.74Z" fill="#B55942"/>
<path d="M1959.94 2429.59C1958.98 2396.68 1984.88 2369.23 2017.79 2368.28C2050.7 2367.32 2078.15 2393.22 2079.11 2426.13L2083.82 2588.61C2084.78 2621.52 2058.87 2648.97 2025.96 2649.93C1993.06 2650.88 1965.61 2624.98 1964.65 2592.07L1959.94 2429.59Z" fill="#B55942"/>
<path fill-rule="evenodd" clip-rule="evenodd" d="M1205.5 3325.11V5744.11H835.813C160.733 5744.11 0 5582.84 0 4905.52V4163.69C0 3486.37 160.733 3325.11 835.813 3325.11H1205.5Z" fill="#3891F7"/>
<path d="M864.921 3954.11L1564.75 3954.21C1656.23 3955.32 1703.95 3965.53 1753.45 3992.01C1801.44 4017.68 1839.44 4055.7 1865.1 4103.7C1893.23 4156.3 1903 4206.91 1903 4310.13V4760.08C1903 4863.3 1893.23 4913.91 1865.1 4966.51C1839.44 5014.51 1801.44 5052.53 1753.45 5078.2C1700.86 5106.33 1650.27 5116.11 1547.08 5116.11H864.921C761.731 5116.11 711.141 5106.33 658.548 5078.2C610.564 5052.53 572.559 5014.51 546.897 4966.51C518.769 4913.91 509 4863.3 509 4760.08L509.103 4292.45C510.213 4200.95 520.424 4153.21 546.897 4103.7C572.559 4055.7 610.564 4017.68 658.548 3992.01C711.141 3963.88 761.731 3954.11 864.921 3954.11ZM1768.66 4170.7L1370.28 4569.14C1282.58 4656.87 1142.19 4659.8 1050.97 4577.91L1041.72 4569.14L643.337 4170.7C630.011 4200.61 625.167 4234.82 625.167 4310.13V4760.08C625.167 4845.76 631.437 4878.24 649.334 4911.71C664.169 4939.46 685.592 4960.89 713.332 4975.73C742.859 4991.53 771.613 4998.27 836.811 4999.64L864.921 4999.91H1547.08C1632.73 4999.91 1665.2 4993.63 1698.67 4975.73C1726.41 4960.89 1747.83 4939.46 1762.67 4911.71C1778.46 4882.18 1785.2 4853.42 1786.56 4788.2L1786.83 4760.08V4310.13C1786.83 4234.82 1781.99 4200.61 1768.66 4170.7ZM1547.08 4070.31H864.921C789.635 4070.31 755.436 4075.15 725.536 4088.48L1123.86 4486.97C1166.84 4529.96 1235.11 4532.23 1280.75 4493.76L1288.14 4486.97L1686.46 4088.48C1656.56 4075.15 1622.36 4070.31 1547.08 4070.31Z" fill="#F7FBF7"/>
<path d="M1768.66 4170.7L1370.28 4569.14C1282.58 4656.87 1142.19 4659.8 1050.97 4577.91L1041.72 4569.14L643.337 4170.7C630.011 4200.61 625.167 4234.82 625.167 4310.13V4760.08C625.167 4845.76 631.437 4878.24 649.334 4911.71C664.169 4939.46 685.592 4960.89 713.332 4975.73C742.859 4991.53 771.613 4998.27 836.811 4999.64L864.921 4999.91H1547.08C1632.73 4999.91 1665.2 4993.63 1698.67 4975.73C1726.41 4960.89 1747.83 4939.46 1762.67 4911.71C1778.46 4882.18 1785.2 4853.42 1786.56 4788.2L1786.83 4760.08V4310.13C1786.83 4234.82 1781.99 4200.61 1768.66 4170.7Z" fill="#F7FBF7"/>
<path d="M1547.08 4070.31H864.921C789.635 4070.31 755.436 4075.15 725.536 4088.48L1123.86 4486.97C1166.84 4529.96 1235.11 4532.23 1280.75 4493.76L1288.14 4486.97L1686.46 4088.48C1656.56 4075.15 1622.36 4070.31 1547.08 4070.31Z" fill="#F7FBF7"/>
<path fill-rule="evenodd" clip-rule="evenodd" d="M1865.1 4103.79C1893.23 4156.4 1903 4207 1903 4310.22V4760.17C1903 4863.39 1893.23 4914 1865.1 4966.61C1839.44 5014.6 1801.44 5052.62 1753.45 5078.29C1700.86 5106.43 1650.27 5116.2 1547.08 5116.2H864.921C761.731 5116.2 711.141 5106.43 658.548 5078.29C610.564 5052.62 572.559 5014.6 546.897 4966.61C518.769 4914 509 4863.39 509 4760.17L509.103 4292.54C510.213 4201.04 520.424 4153.3 546.897 4103.79C569.784 4060.98 602.49 4026.11 643.337 4000.86L725.536 4088.57L1123.86 4487.07C1166.84 4530.06 1235.11 4532.32 1280.75 4493.85L1288.14 4487.07L1686.46 4088.57L1768.66 4000.86C1804.56 4023.05 1834.17 4052.67 1856.35 4088.57C1859.41 4093.53 1862.33 4098.6 1865.1 4103.79ZM1370.28 4569.23L1768.66 4170.8C1781.99 4200.7 1786.83 4234.91 1786.83 4310.22V4760.17L1786.56 4788.29C1785.2 4853.51 1778.46 4882.27 1762.67 4911.81C1747.83 4939.56 1726.41 4960.98 1698.67 4975.82C1665.2 4993.73 1632.73 5000 1547.08 5000H864.921L836.811 4999.73C771.613 4998.36 742.859 4991.62 713.332 4975.82C685.592 4960.98 664.169 4939.56 649.334 4911.81C631.437 4878.33 625.167 4845.85 625.167 4760.17V4310.22C625.167 4234.91 630.011 4200.7 643.337 4170.8L1041.72 4569.23L1050.97 4578.01C1142.19 4659.89 1282.58 4656.96 1370.28 4569.23Z" fill="#1879FF"/>
<path d="M2422.16 1256.36C2556.04 1197.04 2683.17 1281.07 2730 1330.5C2700.64 1309.31 2618.13 1279.64 2523.03 1330.5C2404.15 1394.08 2348.48 1296.05 2422.16 1256.36Z" fill="#AD5131"/>
<path d="M1381.9 1379.82C1246.61 1358.21 1179.51 1469.55 1143 1517C1167.4 1494.93 1235.65 1463.6 1333.11 1485.78C1454.93 1513.51 1457.45 1397.23 1381.9 1379.82Z" fill="#AD5131"/>
</svg>
