<svg width="2000" height="2000" viewBox="0 0 2000 2000" fill="none" xmlns="http://www.w3.org/2000/svg">
<rect width="2000" height="2000" fill="url(#paint0_linear)"/>
<path d="M854.664 1115.21C854.664 1075.7 864.721 1040.87 884.829 1010.74C904.943 980.593 938.836 947.029 986.507 910.05C1015.31 887.757 1036.66 870.279 1050.56 857.614C1064.47 844.95 1075.89 830.771 1084.83 815.064C1093.76 799.357 1098.24 781.629 1098.24 761.871C1098.24 739.582 1092.15 720.206 1079.99 703.741C1067.82 687.278 1051.44 674.613 1030.83 665.748C1010.21 656.882 987.993 652.45 964.157 652.45C906.557 652.45 860.621 675.246 826.357 720.839C812.457 735.53 799.793 746.041 788.371 752.371C776.95 758.707 763.05 761.871 746.657 761.871C719.35 761.871 698.243 753.514 683.346 736.796C668.449 720.079 661 699.562 661 675.246C661 651.943 666.959 628.894 678.876 606.097C690.795 583.301 707.179 562.531 728.036 543.787C756.343 518.458 792.471 498.828 836.414 484.896C880.364 470.966 930.643 464 987.25 464C1056.27 464 1117.48 475.271 1170.86 497.814C1224.24 520.358 1265.71 552.906 1295.25 595.459C1324.8 638.012 1339.57 688.671 1339.57 747.435C1339.57 788.471 1332.37 824.186 1317.97 854.579C1303.57 884.971 1284.82 911.186 1261.74 933.221C1238.64 955.264 1208.97 979.2 1172.72 1005.04C1139.95 1029.35 1115.61 1050.12 1099.73 1067.34C1083.84 1084.56 1070.43 1105.84 1059.5 1131.17C1048.58 1150.42 1039.26 1165.36 1031.57 1176.01C1023.87 1186.64 1013.69 1195.26 1001.03 1201.84C988.364 1208.43 972.35 1211.72 952.986 1211.72C921.207 1211.72 896.871 1202.73 879.993 1184.74C863.107 1166.76 854.664 1143.59 854.664 1115.21V1115.21ZM821.143 1415.36C821.143 1391.56 826.979 1370.54 838.65 1352.3C850.321 1334.06 866.086 1320 885.95 1310.12C905.814 1300.24 927.664 1295.31 951.5 1295.31C975.336 1295.31 997.179 1300.24 1017.04 1310.12C1036.91 1320 1052.55 1334.06 1063.97 1352.3C1075.39 1370.54 1081.1 1391.56 1081.1 1415.36C1081.1 1439.18 1075.39 1460.2 1063.97 1478.44C1052.55 1496.67 1036.91 1510.74 1017.04 1520.61C997.179 1530.49 975.336 1535.43 951.5 1535.43C927.664 1535.43 905.814 1530.49 885.95 1520.61C866.086 1510.74 850.321 1496.67 838.65 1478.44C826.979 1460.2 821.143 1439.18 821.143 1415.36Z" fill="white"/>
<defs>
<linearGradient id="paint0_linear" x1="0" y1="0" x2="2000" y2="2000" gradientUnits="userSpaceOnUse">
<stop stop-color="#BF84FC"/>
<stop offset="1" stop-color="#AE6CF2"/>
</linearGradient>
</defs>
</svg>
