<svg width="2000" height="2000" viewBox="0 0 2000 2000" fill="none" xmlns="http://www.w3.org/2000/svg">
<rect width="2000" height="2000" fill="url(#paint0_linear)"/>
<path fill-rule="evenodd" clip-rule="evenodd" d="M663.921 764.936C636.026 737.043 636.026 691.816 663.921 663.921C691.816 636.026 737.043 636.026 764.936 663.921L1000.14 899.129L1235.35 663.921C1263.24 636.026 1308.47 636.026 1336.36 663.921C1364.26 691.816 1364.26 737.043 1336.36 764.936L1101.16 1000.14L1336.36 1235.35C1364.26 1263.24 1364.26 1308.47 1336.36 1336.36C1308.47 1364.26 1263.24 1364.26 1235.35 1336.36L1000.14 1101.16L764.936 1336.36C737.043 1364.26 691.816 1364.26 663.921 1336.36C636.026 1308.47 636.026 1263.24 663.921 1235.35L899.129 1000.14L663.921 764.936Z" fill="white"/>
<defs>
<linearGradient id="paint0_linear" x1="0" y1="0" x2="2000" y2="2000" gradientUnits="userSpaceOnUse">
<stop stop-color="#FF4D5F"/>
<stop offset="1" stop-color="#FF384C"/>
</linearGradient>
</defs>
</svg>
