<svg width="103" height="103" viewBox="0 0 103 103" fill="none" xmlns="http://www.w3.org/2000/svg">
<path fill-rule="evenodd" clip-rule="evenodd" d="M103 35.7067C103 6.86667 96.1333 0 67.2933 0H35.7067C6.86667 0 0 6.86667 0 35.7067V67.2933C0 96.1333 6.86667 103 35.7067 103H67.2933C96.1333 103 103 96.1333 103 67.2933V35.7067ZM49.978 81.2745C44.7971 86.9463 41.9009 85.3368 43.8299 77.568L47.9766 60.7071C47.9823 60.6838 47.9873 60.6603 47.9915 60.6366C48.1015 60.0231 47.6933 59.4366 47.0799 59.3266L37.0517 57.5289C29.9662 56.2945 26.7422 51.3646 32.868 44.567C35.6631 41.6063 37.6904 39.4282 38.9498 38.0328C42.5623 34.0304 47.8429 28.1118 54.7916 20.2769C59.6277 14.7365 62.8517 16.1523 60.9174 23.9705L56.8794 40.6309C56.8746 40.6509 56.8703 40.671 56.8666 40.6913C56.7531 41.3042 57.1579 41.893 57.7707 42.0065L68.2638 43.9498C75.515 45.1842 76.7762 50.1221 71.7409 56.268L49.978 81.2745Z" fill="#2686F4"/>
</svg>
