<svg width="774" height="464" viewBox="0 0 774 464" fill="none" xmlns="http://www.w3.org/2000/svg">
<rect y="69.3263" width="308.447" height="325.743" rx="30" fill="#D8D8F6"/>
<rect x="28.8269" y="119.773" width="198.905" height="43.2402" rx="21.6201" fill="#BBBBE4"/>
<rect x="33.1509" y="180.31" width="147.017" height="21.6201" rx="10.8101" fill="#BBBBE4"/>
<rect x="33.1509" y="237.963" width="147.017" height="14.4134" rx="7.20671" fill="#BBBBE4"/>
<rect x="33.1509" y="261.025" width="147.017" height="14.4134" rx="7.20671" fill="#BBBBE4"/>
<rect x="33.1509" y="284.086" width="147.017" height="14.4134" rx="7.20671" fill="#BBBBE4"/>
<rect x="33.1509" y="307.148" width="18.7374" height="14.4134" rx="7.20671" fill="#BBBBE4"/>
<rect x="33.1509" y="330.209" width="43.2402" height="14.4134" rx="7.20671" fill="#BBBBE4"/>
<rect x="85.0393" y="330.209" width="43.2402" height="14.4134" rx="7.20671" fill="#BBBBE4"/>
<rect x="57.6534" y="307.148" width="122.514" height="14.4134" rx="7.20671" fill="#BBBBE4"/>
<rect x="136.927" y="330.209" width="43.2402" height="14.4134" rx="7.20671" fill="#E4E7E9"/>
<rect x="465.553" y="69.3263" width="308.447" height="325.743" rx="30" fill="#D8D8F6"/>
<rect x="494.38" y="119.773" width="250.793" height="43.2402" rx="21.6201" fill="#BBBBE4"/>
<rect x="500.145" y="180.31" width="210.436" height="21.6201" rx="10.8101" fill="#BBBBE4"/>
<rect x="500.145" y="237.963" width="245.028" height="14.4134" rx="7.20671" fill="#BBBBE4"/>
<rect x="500.145" y="261.025" width="245.028" height="14.4134" rx="7.20671" fill="#BBBBE4"/>
<rect x="500.145" y="284.086" width="245.028" height="14.4134" rx="7.20671" fill="#BBBBE4"/>
<rect x="500.145" y="307.148" width="31.7095" height="14.4134" rx="7.20671" fill="#E4E7E9"/>
<rect x="500.145" y="330.209" width="72.067" height="14.4134" rx="7.20671" fill="#E4E7E9"/>
<rect x="586.625" y="330.209" width="72.067" height="14.4134" rx="7.20671" fill="#BBBBE4"/>
<rect x="540.503" y="307.148" width="204.67" height="14.4134" rx="7.20671" fill="#BBBBE4"/>
<rect x="673.106" y="330.209" width="72.067" height="14.4134" rx="7.20671" fill="#BBBBE4"/>
<rect x="115" width="542" height="464" rx="30" fill="#EAEAF6"/>
<path d="M182.069 137H179.286V131.211H173.859V137H171.076V123.492H173.859V128.966H179.286V123.492H182.069V137ZM189.742 137C189.618 136.759 189.529 136.459 189.473 136.1C188.823 136.824 187.979 137.186 186.94 137.186C185.957 137.186 185.14 136.901 184.491 136.332C183.848 135.763 183.526 135.046 183.526 134.18C183.526 133.116 183.919 132.299 184.704 131.73C185.496 131.161 186.637 130.874 188.128 130.868H189.362V130.292C189.362 129.829 189.241 129.458 189 129.179C188.765 128.901 188.391 128.762 187.877 128.762C187.426 128.762 187.07 128.87 186.81 129.086C186.557 129.303 186.43 129.6 186.43 129.977H183.749C183.749 129.396 183.928 128.858 184.287 128.363C184.646 127.868 185.153 127.481 185.808 127.203C186.464 126.919 187.2 126.776 188.016 126.776C189.253 126.776 190.234 127.089 190.957 127.713C191.687 128.332 192.052 129.204 192.052 130.33V134.681C192.058 135.633 192.191 136.354 192.451 136.842V137H189.742ZM187.525 135.135C187.92 135.135 188.285 135.049 188.619 134.875C188.953 134.696 189.201 134.458 189.362 134.161V132.436H188.36C187.018 132.436 186.303 132.899 186.217 133.827L186.207 133.985C186.207 134.319 186.325 134.594 186.56 134.811C186.795 135.027 187.116 135.135 187.525 135.135ZM207.063 132.074C207.063 133.62 206.711 134.86 206.006 135.794C205.307 136.722 204.36 137.186 203.167 137.186C202.152 137.186 201.333 136.833 200.708 136.128V140.859H198.027V126.962H200.513L200.606 127.945C201.256 127.166 202.103 126.776 203.148 126.776C204.385 126.776 205.347 127.234 206.033 128.149C206.72 129.065 207.063 130.326 207.063 131.935V132.074ZM204.382 131.879C204.382 130.945 204.215 130.224 203.881 129.717C203.553 129.21 203.074 128.957 202.443 128.957C201.602 128.957 201.024 129.278 200.708 129.921V134.031C201.036 134.693 201.62 135.024 202.462 135.024C203.742 135.024 204.382 133.976 204.382 131.879ZM214.142 137C214.018 136.759 213.929 136.459 213.873 136.1C213.224 136.824 212.379 137.186 211.34 137.186C210.357 137.186 209.54 136.901 208.891 136.332C208.248 135.763 207.926 135.046 207.926 134.18C207.926 133.116 208.319 132.299 209.104 131.73C209.896 131.161 211.037 130.874 212.528 130.868H213.762V130.292C213.762 129.829 213.641 129.458 213.4 129.179C213.165 128.901 212.791 128.762 212.277 128.762C211.826 128.762 211.47 128.87 211.21 129.086C210.957 129.303 210.83 129.6 210.83 129.977H208.149C208.149 129.396 208.328 128.858 208.687 128.363C209.046 127.868 209.553 127.481 210.208 127.203C210.864 126.919 211.6 126.776 212.416 126.776C213.653 126.776 214.634 127.089 215.357 127.713C216.087 128.332 216.452 129.204 216.452 130.33V134.681C216.458 135.633 216.591 136.354 216.851 136.842V137H214.142ZM211.925 135.135C212.321 135.135 212.685 135.049 213.019 134.875C213.353 134.696 213.601 134.458 213.762 134.161V132.436H212.76C211.418 132.436 210.703 132.899 210.617 133.827L210.607 133.985C210.607 134.319 210.725 134.594 210.96 134.811C211.195 135.027 211.516 135.135 211.925 135.135ZM222.278 135.024C222.773 135.024 223.175 134.888 223.484 134.616C223.794 134.344 223.955 133.982 223.967 133.53H226.481C226.475 134.211 226.289 134.835 225.924 135.404C225.559 135.967 225.059 136.406 224.421 136.722C223.791 137.031 223.092 137.186 222.325 137.186C220.89 137.186 219.758 136.731 218.929 135.822C218.101 134.906 217.686 133.645 217.686 132.037V131.86C217.686 130.314 218.097 129.08 218.92 128.159C219.743 127.237 220.871 126.776 222.306 126.776C223.562 126.776 224.567 127.135 225.321 127.853C226.082 128.564 226.469 129.513 226.481 130.701H223.967C223.955 130.181 223.794 129.761 223.484 129.439C223.175 129.111 222.767 128.947 222.26 128.947C221.635 128.947 221.162 129.176 220.84 129.634C220.525 130.085 220.367 130.821 220.367 131.842V132.12C220.367 133.153 220.525 133.895 220.84 134.347C221.156 134.798 221.635 135.024 222.278 135.024ZM231.779 135.024C232.273 135.024 232.675 134.888 232.985 134.616C233.294 134.344 233.455 133.982 233.467 133.53H235.981C235.975 134.211 235.79 134.835 235.425 135.404C235.06 135.967 234.559 136.406 233.922 136.722C233.291 137.031 232.592 137.186 231.825 137.186C230.39 137.186 229.258 136.731 228.429 135.822C227.601 134.906 227.186 133.645 227.186 132.037V131.86C227.186 130.314 227.598 129.08 228.42 128.159C229.243 127.237 230.372 126.776 231.806 126.776C233.062 126.776 234.067 127.135 234.822 127.853C235.582 128.564 235.969 129.513 235.981 130.701H233.467C233.455 130.181 233.294 129.761 232.985 129.439C232.675 129.111 232.267 128.947 231.76 128.947C231.135 128.947 230.662 129.176 230.341 129.634C230.025 130.085 229.867 130.821 229.867 131.842V132.12C229.867 133.153 230.025 133.895 230.341 134.347C230.656 134.798 231.135 135.024 231.779 135.024ZM243.218 133.836L245.843 126.962H249.202V137H246.521V130.84L244.118 137H242.318L239.961 130.942V137H237.28V126.962H240.611L243.218 133.836ZM250.714 131.888C250.714 130.892 250.906 130.005 251.289 129.226C251.673 128.446 252.223 127.843 252.941 127.417C253.664 126.99 254.502 126.776 255.455 126.776C256.809 126.776 257.913 127.191 258.767 128.02C259.627 128.848 260.106 129.974 260.205 131.396L260.223 132.083C260.223 133.623 259.794 134.86 258.934 135.794C258.074 136.722 256.921 137.186 255.473 137.186C254.026 137.186 252.87 136.722 252.004 135.794C251.144 134.866 250.714 133.604 250.714 132.009V131.888ZM253.395 132.083C253.395 133.035 253.575 133.765 253.933 134.272C254.292 134.773 254.805 135.024 255.473 135.024C256.123 135.024 256.63 134.777 256.995 134.282C257.36 133.781 257.542 132.983 257.542 131.888C257.542 130.954 257.36 130.231 256.995 129.717C256.63 129.204 256.117 128.947 255.455 128.947C254.799 128.947 254.292 129.204 253.933 129.717C253.575 130.224 253.395 131.013 253.395 132.083ZM269.519 129.114H266.3V137H263.61V129.114H260.446V126.962H269.519V129.114ZM279.502 132.074C279.502 133.62 279.15 134.86 278.444 135.794C277.746 136.722 276.799 137.186 275.606 137.186C274.591 137.186 273.772 136.833 273.147 136.128V140.859H270.466V126.962H272.952L273.045 127.945C273.694 127.166 274.542 126.776 275.587 126.776C276.824 126.776 277.786 127.234 278.472 128.149C279.159 129.065 279.502 130.326 279.502 131.935V132.074ZM276.821 131.879C276.821 130.945 276.654 130.224 276.32 129.717C275.992 129.21 275.513 128.957 274.882 128.957C274.041 128.957 273.463 129.278 273.147 129.921V134.031C273.475 134.693 274.059 135.024 274.901 135.024C276.181 135.024 276.821 133.976 276.821 131.879ZM285.384 137.186C283.912 137.186 282.712 136.734 281.785 135.831C280.863 134.928 280.402 133.725 280.402 132.222V131.962C280.402 130.954 280.597 130.054 280.987 129.263C281.376 128.465 281.927 127.853 282.638 127.426C283.355 126.993 284.172 126.776 285.087 126.776C286.46 126.776 287.54 127.209 288.325 128.075C289.117 128.941 289.513 130.169 289.513 131.758V132.853H283.12C283.207 133.509 283.467 134.034 283.9 134.43C284.339 134.826 284.892 135.024 285.56 135.024C286.593 135.024 287.4 134.65 287.982 133.901L289.299 135.376C288.897 135.945 288.353 136.391 287.666 136.712C286.98 137.028 286.219 137.186 285.384 137.186ZM285.078 128.947C284.546 128.947 284.113 129.127 283.779 129.485C283.451 129.844 283.241 130.357 283.148 131.025H286.878V130.812C286.865 130.218 286.705 129.761 286.395 129.439C286.086 129.111 285.647 128.947 285.078 128.947ZM299.337 137H296.647V133.141H293.316V137H290.635V126.962H293.316V130.988H296.647V126.962H299.337V137ZM307.056 126.962H309.738V137H307.056V130.803L303.698 137H301.008V126.962H303.698V133.15L307.056 126.962ZM317.429 126.962H320.11V137H317.429V130.803L314.07 137H311.38V126.962H314.07V133.15L317.429 126.962Z" fill="#AFAFF9"/>
<rect x="168" y="197" width="436" height="12" rx="6" fill="#AFAFF9"/>
<rect x="168" y="221" width="73" height="12" rx="6" fill="#AFAFF9"/>
<rect x="251" y="221" width="290" height="12" rx="6" fill="#AFAFF9"/>
<rect x="168" y="246" width="181" height="12" rx="6" fill="#AFAFF9"/>
<rect x="364" y="246" width="209" height="12" rx="6" fill="#AFAFF9"/>
<rect x="168" y="270" width="321" height="13" rx="6.5" fill="#AFAFF9"/>
<rect x="168" y="294" width="379" height="13" rx="6.5" fill="#AFAFF9"/>
<path d="M170.696 102V80.6719H178.167C180.755 80.6719 182.718 81.1699 184.056 82.166C185.393 83.1523 186.062 84.6025 186.062 86.5166C186.062 87.5615 185.794 88.4844 185.257 89.2852C184.72 90.0762 183.973 90.6572 183.015 91.0283C184.109 91.3018 184.969 91.8535 185.594 92.6836C186.228 93.5137 186.546 94.5293 186.546 95.7305C186.546 97.7812 185.891 99.334 184.583 100.389C183.274 101.443 181.409 101.98 178.987 102H170.696ZM175.091 92.7129V98.4697H178.855C179.89 98.4697 180.696 98.2256 181.272 97.7373C181.858 97.2393 182.151 96.5557 182.151 95.6865C182.151 93.7334 181.14 92.7422 179.119 92.7129H175.091ZM175.091 89.6074H178.343C180.559 89.5684 181.668 88.6846 181.668 86.9561C181.668 85.9893 181.385 85.2959 180.818 84.876C180.262 84.4463 179.378 84.2314 178.167 84.2314H175.091V89.6074ZM188.511 93.9287C188.511 92.3564 188.814 90.9551 189.419 89.7246C190.024 88.4941 190.894 87.542 192.026 86.8682C193.169 86.1943 194.492 85.8574 195.996 85.8574C198.135 85.8574 199.878 86.5117 201.226 87.8203C202.583 89.1289 203.34 90.9062 203.496 93.1523L203.525 94.2363C203.525 96.668 202.847 98.6211 201.489 100.096C200.132 101.561 198.311 102.293 196.025 102.293C193.74 102.293 191.914 101.561 190.547 100.096C189.19 98.6309 188.511 96.6387 188.511 94.1191V93.9287ZM192.744 94.2363C192.744 95.7402 193.027 96.8926 193.594 97.6934C194.16 98.4844 194.971 98.8799 196.025 98.8799C197.051 98.8799 197.852 98.4893 198.428 97.708C199.004 96.917 199.292 95.6572 199.292 93.9287C199.292 92.4541 199.004 91.3115 198.428 90.501C197.852 89.6904 197.041 89.2852 195.996 89.2852C194.961 89.2852 194.16 89.6904 193.594 90.501C193.027 91.3018 192.744 92.5469 192.744 94.2363ZM219.509 102H215.261V89.5781H209.958V102H205.725V86.1504H219.509V102ZM236.606 94.2217C236.606 96.6631 236.049 98.6211 234.936 100.096C233.833 101.561 232.338 102.293 230.454 102.293C228.852 102.293 227.558 101.736 226.572 100.623V108.094H222.338V86.1504H226.264L226.411 87.7031C227.436 86.4727 228.774 85.8574 230.424 85.8574C232.377 85.8574 233.896 86.5801 234.98 88.0254C236.064 89.4707 236.606 91.4629 236.606 94.002V94.2217ZM232.373 93.9141C232.373 92.4395 232.109 91.3018 231.582 90.501C231.064 89.7002 230.307 89.2998 229.311 89.2998C227.983 89.2998 227.07 89.8076 226.572 90.8232V97.3125C227.089 98.3574 228.012 98.8799 229.34 98.8799C231.362 98.8799 232.373 97.2246 232.373 93.9141ZM238.175 93.9287C238.175 92.3564 238.478 90.9551 239.084 89.7246C239.689 88.4941 240.558 87.542 241.691 86.8682C242.834 86.1943 244.157 85.8574 245.661 85.8574C247.799 85.8574 249.543 86.5117 250.89 87.8203C252.248 89.1289 253.005 90.9062 253.161 93.1523L253.19 94.2363C253.19 96.668 252.511 98.6211 251.154 100.096C249.797 101.561 247.975 102.293 245.69 102.293C243.405 102.293 241.579 101.561 240.212 100.096C238.854 98.6309 238.175 96.6387 238.175 94.1191V93.9287ZM242.409 94.2363C242.409 95.7402 242.692 96.8926 243.258 97.6934C243.825 98.4844 244.635 98.8799 245.69 98.8799C246.716 98.8799 247.516 98.4893 248.092 97.708C248.669 96.917 248.957 95.6572 248.957 93.9287C248.957 92.4541 248.669 91.3115 248.092 90.501C247.516 89.6904 246.706 89.2852 245.661 89.2852C244.626 89.2852 243.825 89.6904 243.258 90.501C242.692 91.3018 242.409 92.5469 242.409 94.2363ZM261.981 98.8799C262.763 98.8799 263.397 98.665 263.886 98.2354C264.374 97.8057 264.628 97.2344 264.647 96.5215H268.617C268.607 97.5957 268.314 98.582 267.738 99.4805C267.162 100.369 266.371 101.062 265.365 101.561C264.369 102.049 263.266 102.293 262.055 102.293C259.789 102.293 258.002 101.575 256.693 100.14C255.385 98.6943 254.73 96.7021 254.73 94.1631V93.8848C254.73 91.4434 255.38 89.4951 256.679 88.04C257.977 86.585 259.76 85.8574 262.025 85.8574C264.008 85.8574 265.595 86.4238 266.786 87.5566C267.987 88.6797 268.598 90.1787 268.617 92.0537H264.647C264.628 91.2334 264.374 90.5693 263.886 90.0615C263.397 89.5439 262.753 89.2852 261.952 89.2852C260.966 89.2852 260.219 89.6465 259.711 90.3691C259.213 91.082 258.964 92.2441 258.964 93.8555V94.2949C258.964 95.9258 259.213 97.0977 259.711 97.8105C260.209 98.5234 260.966 98.8799 261.981 98.8799ZM285.833 95.9941H283.006L281.951 102H279.271L280.326 95.9941H277V93.4746H280.765L281.497 89.3145H278.099V86.7656H281.951L283.021 80.6719H285.687L284.617 86.7656H287.459L288.529 80.6719H291.209L290.14 86.7656H293.348V89.3145H289.686L288.953 93.4746H292.235V95.9941H288.514L287.459 102H284.779L285.833 95.9941ZM283.446 93.4746H286.273L287.005 89.3145H284.163L283.446 93.4746ZM309.478 83.0449L301.231 102H296.763L305.025 84.0996H294.419V80.6719H309.478V83.0449ZM326.414 102H311.795V99.0996L318.694 91.7461C319.641 90.7109 320.34 89.8076 320.789 89.0361C321.248 88.2646 321.477 87.5322 321.477 86.8389C321.477 85.8916 321.238 85.1494 320.76 84.6123C320.281 84.0654 319.597 83.792 318.709 83.792C317.752 83.792 316.995 84.124 316.438 84.7881C315.891 85.4424 315.618 86.3066 315.618 87.3809H311.37C311.37 86.082 311.677 84.8955 312.293 83.8213C312.918 82.7471 313.797 81.9072 314.929 81.3018C316.062 80.6865 317.346 80.3789 318.782 80.3789C320.979 80.3789 322.683 80.9062 323.894 81.9609C325.115 83.0156 325.725 84.5049 325.725 86.4287C325.725 87.4834 325.452 88.5576 324.905 89.6514C324.358 90.7451 323.421 92.0195 322.093 93.4746L317.244 98.5869H326.414V102ZM332.92 89.4609H335.176C336.25 89.4609 337.046 89.1924 337.563 88.6553C338.081 88.1182 338.34 87.4053 338.34 86.5166C338.34 85.6572 338.081 84.9883 337.563 84.5098C337.056 84.0312 336.352 83.792 335.454 83.792C334.643 83.792 333.965 84.0166 333.418 84.4658C332.871 84.9053 332.598 85.4814 332.598 86.1943H328.364C328.364 85.0811 328.662 84.085 329.258 83.2061C329.863 82.3174 330.703 81.624 331.777 81.126C332.861 80.6279 334.053 80.3789 335.352 80.3789C337.607 80.3789 339.375 80.9209 340.654 82.0049C341.934 83.0791 342.573 84.5635 342.573 86.458C342.573 87.4346 342.275 88.333 341.68 89.1533C341.084 89.9736 340.303 90.6035 339.336 91.043C340.537 91.4727 341.431 92.1172 342.017 92.9766C342.612 93.8359 342.91 94.8516 342.91 96.0234C342.91 97.918 342.217 99.4365 340.83 100.579C339.453 101.722 337.627 102.293 335.352 102.293C333.223 102.293 331.479 101.731 330.122 100.608C328.774 99.4854 328.101 98.001 328.101 96.1553H332.334C332.334 96.9561 332.632 97.6104 333.227 98.1182C333.833 98.626 334.575 98.8799 335.454 98.8799C336.46 98.8799 337.246 98.6162 337.812 98.0889C338.389 97.5518 338.677 96.8438 338.677 95.9648C338.677 93.8359 337.505 92.7715 335.161 92.7715H332.92V89.4609ZM359.787 93.1816C359.787 96.1309 359.177 98.3867 357.956 99.9492C356.735 101.512 354.948 102.293 352.595 102.293C350.271 102.293 348.493 101.526 347.263 99.9932C346.032 98.46 345.402 96.2627 345.373 93.4014V89.4756C345.373 86.4971 345.988 84.2363 347.219 82.6934C348.459 81.1504 350.241 80.3789 352.566 80.3789C354.89 80.3789 356.667 81.1455 357.898 82.6787C359.128 84.2021 359.758 86.3945 359.787 89.2559V93.1816ZM355.554 88.875C355.554 87.1074 355.31 85.8232 354.821 85.0225C354.343 84.2119 353.591 83.8066 352.566 83.8066C351.569 83.8066 350.832 84.1924 350.354 84.9639C349.885 85.7256 349.636 86.9219 349.607 88.5527V93.7383C349.607 95.4766 349.841 96.7705 350.31 97.6201C350.788 98.46 351.55 98.8799 352.595 98.8799C353.63 98.8799 354.377 98.4746 354.836 97.6641C355.295 96.8535 355.534 95.6133 355.554 93.9434V88.875Z" fill="#AFAFF9"/>
<rect x="166" y="358" width="442" height="79" rx="11" fill="#E6E6FF"/>
<path d="M350.897 395.02C350.897 396.691 350.616 398.152 350.053 399.402C349.491 400.645 348.694 401.594 347.662 402.25C346.631 402.906 345.428 403.234 344.053 403.234C342.709 403.234 341.518 402.906 340.479 402.25C339.44 401.586 338.631 400.645 338.053 399.426C337.483 398.199 337.19 396.781 337.174 395.172V393.941C337.174 392.301 337.459 390.852 338.03 389.594C338.6 388.336 339.405 387.375 340.444 386.711C341.491 386.039 342.686 385.703 344.03 385.703C345.397 385.703 346.6 386.035 347.639 386.699C348.686 387.355 349.491 388.312 350.053 389.57C350.616 390.82 350.897 392.277 350.897 393.941V395.02ZM348.658 393.918C348.658 391.895 348.252 390.344 347.44 389.266C346.627 388.18 345.491 387.637 344.03 387.637C342.608 387.637 341.487 388.18 340.666 389.266C339.854 390.344 339.436 391.844 339.412 393.766V395.02C339.412 396.98 339.823 398.523 340.643 399.648C341.471 400.766 342.608 401.324 344.053 401.324C345.506 401.324 346.631 400.797 347.428 399.742C348.225 398.68 348.635 397.16 348.658 395.184V393.918ZM362.946 392.078H358.692V403H356.524V392.078H352.352V390.32H362.946V392.078ZM364.846 403V390.32H369.792C371.479 390.32 372.772 390.617 373.671 391.211C374.577 391.797 375.03 392.66 375.03 393.801C375.03 394.387 374.854 394.918 374.503 395.395C374.151 395.863 373.632 396.223 372.944 396.473C373.71 396.652 374.323 397.004 374.784 397.527C375.253 398.051 375.487 398.676 375.487 399.402C375.487 400.566 375.057 401.457 374.198 402.074C373.346 402.691 372.139 403 370.577 403H364.846ZM367.014 397.434V401.254H370.6C371.507 401.254 372.182 401.086 372.628 400.75C373.081 400.414 373.307 399.941 373.307 399.332C373.307 398.066 372.378 397.434 370.518 397.434H367.014ZM367.014 395.699H369.815C371.846 395.699 372.862 395.105 372.862 393.918C372.862 392.73 371.901 392.117 369.979 392.078H367.014V395.699ZM383.212 403.234C381.493 403.234 380.095 402.672 379.017 401.547C377.938 400.414 377.399 398.902 377.399 397.012V396.613C377.399 395.355 377.638 394.234 378.114 393.25C378.599 392.258 379.27 391.484 380.13 390.93C380.997 390.367 381.934 390.086 382.942 390.086C384.591 390.086 385.872 390.629 386.786 391.715C387.7 392.801 388.157 394.355 388.157 396.379V397.281H379.567C379.599 398.531 379.962 399.543 380.657 400.316C381.36 401.082 382.251 401.465 383.329 401.465C384.095 401.465 384.743 401.309 385.274 400.996C385.806 400.684 386.27 400.27 386.669 399.754L387.993 400.785C386.931 402.418 385.337 403.234 383.212 403.234ZM382.942 391.867C382.067 391.867 381.333 392.188 380.739 392.828C380.145 393.461 379.778 394.352 379.638 395.5H385.989V395.336C385.927 394.234 385.63 393.383 385.099 392.781C384.567 392.172 383.849 391.867 382.942 391.867ZM399.55 392.078H395.296V403H393.128V392.078H388.956V390.32H399.55V392.078ZM409.454 390.32H411.622V403H409.454V393.754L403.607 403H401.439V390.32H403.607V399.578L409.454 390.32ZM424.117 392.078H419.863V403H417.695V392.078H413.523V390.32H424.117V392.078ZM428.185 394.691H431.478C432.916 394.707 434.052 395.082 434.888 395.816C435.724 396.551 436.142 397.547 436.142 398.805C436.142 400.07 435.713 401.086 434.853 401.852C433.994 402.617 432.838 403 431.384 403H426.017V390.32H428.185V394.691ZM428.185 396.461V401.23H431.408C432.22 401.23 432.849 401.023 433.295 400.609C433.74 400.188 433.963 399.613 433.963 398.887C433.963 398.184 433.744 397.609 433.306 397.164C432.877 396.711 432.271 396.477 431.49 396.461H428.185Z" fill="#AFAFF9"/>
</svg>
