<svg width="601" height="426" viewBox="0 0 601 426" fill="none" xmlns="http://www.w3.org/2000/svg">
<rect x="164" y="5" width="273" height="249" rx="20" fill="#FEFEFE" stroke="#70B3FF" stroke-width="10"/>
<rect x="210" width="179" height="31" rx="12" fill="#70B3FF"/>
<rect x="210" width="179" height="14" fill="#70B3FF"/>
<g clip-path="url(#clip0)">
<rect y="102" width="601" height="281" rx="24" fill="#E8F1FF"/>
<rect x="164" y="-8" width="273" height="507" rx="20" fill="#FEFEFE" stroke="#70B3FF" stroke-width="10"/>
<rect x="242" y="110" width="117" height="70" rx="3" fill="#9FC7F5"/>
<rect x="194" y="223" width="211" height="12" rx="6" fill="#9FC7F5"/>
<rect x="194" y="251" width="211" height="12" rx="6" fill="#9FC7F5"/>
<rect x="242" y="279" width="115" height="10" rx="5" fill="#9FC7F5"/>
<rect x="187" y="361" width="226" height="23" rx="4" fill="#9FC7F5"/>
<rect x="187" y="371" width="226" height="13" fill="#9FC7F5"/>
<path d="M293.748 153.766L283.353 143.366C282.586 142.598 281.342 142.598 280.575 143.366C279.808 144.133 279.808 145.377 280.575 146.145L292.36 157.935C293.127 158.702 294.37 158.702 295.137 157.935L318.706 134.355C319.473 133.587 319.473 132.343 318.706 131.576C317.939 130.808 316.695 130.808 315.928 131.576L293.748 153.766Z" fill="#FEFEFE"/>
</g>
<path d="M78.1252 67.8413C78.346 66.9396 79.5694 66.7993 79.9886 67.6276L91.5688 90.5048C91.7006 90.7652 91.9396 90.955 92.2231 91.0244L117.128 97.1252C118.03 97.346 118.17 98.5694 117.342 98.9887L94.4644 110.569C94.204 110.701 94.0142 110.94 93.9447 111.223L87.844 136.128C87.6231 137.03 86.3997 137.17 85.9805 136.342L74.4003 113.464C74.2685 113.204 74.0295 113.014 73.746 112.945L48.8413 106.844C47.9396 106.623 47.7993 105.4 48.6276 104.981L71.5048 93.4003C71.7652 93.2685 71.955 93.0295 72.0244 92.746L78.1252 67.8413Z" fill="#9FC7F5"/>
<path d="M512.443 347.992C512.664 347.091 513.887 346.95 514.306 347.779L526.353 371.577C526.484 371.837 526.723 372.027 527.007 372.097L552.914 378.443C553.816 378.664 553.956 379.887 553.128 380.306L529.33 392.353C529.069 392.485 528.88 392.724 528.81 393.007L522.464 418.914C522.243 419.816 521.02 419.956 520.6 419.128L508.554 395.33C508.422 395.069 508.183 394.88 507.9 394.81L481.992 388.464C481.091 388.243 480.95 387.02 481.779 386.6L505.577 374.554C505.837 374.422 506.027 374.183 506.096 373.9L512.443 347.992Z" fill="#9FC7F5"/>
<defs>
<clipPath id="clip0">
<rect y="102" width="601" height="281" rx="24" fill="white"/>
</clipPath>
</defs>
</svg>
