<svg width="100" height="100" viewBox="0 0 1064 1064" fill="none" xmlns="http://www.w3.org/2000/svg">
<path d="M0 514.334C0 270.577 -3.23293e-05 148.694 71.9036 76.7899C143.816 4.87645 265.693 1.22363 507.014 0H549.673C793.426 0 915.302 7.0233e-05 987.215 71.9135C1059.12 143.818 1062.78 266.915 1064 507.02V549.675C1064 793.432 1064 915.315 993.308 987.219C922.615 1059.13 798.298 1062.79 556.986 1064H514.327C270.565 1064 148.689 1064 76.7851 992.096C4.87249 920.191 1.22039 797.094 0 555.766V514.334Z" fill="#0077FF"/>
<mask id="mask0_153_3666" style="mask-type:alpha" maskUnits="userSpaceOnUse" x="0" y="0" width="1064" height="1064">
<path d="M0 514.334C0 270.577 -3.23293e-05 148.694 71.9036 76.7899C143.816 4.87645 265.693 1.22363 507.014 0H549.673C793.426 0 915.302 7.0233e-05 987.215 71.9135C1059.12 143.818 1062.78 266.915 1064 507.02V549.675C1064 793.432 1064 915.315 993.308 987.219C922.615 1059.13 798.298 1062.79 556.986 1064H514.327C270.565 1064 148.689 1064 76.7851 992.096C4.87249 920.191 1.22039 797.094 0 555.766V514.334Z" fill="#0077FF"/>
</mask>
<g mask="url(#mask0_153_3666)">
<path d="M673.312 1064H1064V0H673.312C432.356 0 311.656 0 237.106 74.48C163 148.96 163 269.546 163 508.946V508.947V554.167V554.167C163 794.454 163 915.04 237.106 989.52C311.656 1064 431.912 1064 673.312 1064Z" fill="#CC61FA"/>
<path fill-rule="evenodd" clip-rule="evenodd" d="M513.774 780.157C495.873 852.309 522.75 867.257 570.829 814.581L772.79 582.335C819.517 525.255 807.813 479.395 740.522 467.93L643.145 449.882C637.458 448.828 633.702 443.359 634.755 437.667C634.79 437.479 634.83 437.292 634.875 437.106L672.347 282.374C690.298 209.764 660.378 196.614 615.499 248.07C551.015 320.836 502.011 375.805 468.487 412.977C456.799 425.936 437.986 446.165 412.047 473.662C355.2 536.795 385.119 582.581 450.872 594.045L543.934 610.741C549.627 611.763 553.415 617.21 552.394 622.908C552.355 623.127 552.309 623.346 552.256 623.562L513.774 780.157Z" fill="white"/>
</g>
</svg>
