<svg width="570" height="569" viewBox="0 0 570 569" fill="none" xmlns="http://www.w3.org/2000/svg">
<g clip-path="url(#clip0)">
<rect width="570" height="569" rx="284.5" fill="#E8F1FF"/>
<path d="M97 428.115C108.088 452.882 130.751 507.864 132.698 529.658C135.132 556.902 131.887 448.754 140 405" stroke="#81AEE3" stroke-width="6" stroke-linecap="round"/>
<path d="M188 519L213 355" stroke="#81AEE3" stroke-width="6" stroke-linecap="round"/>
<path d="M55.5976 379.57C17.5365 365.803 -20.6596 371.809 -35 376.533C15.2083 402.447 73.3122 430.52 97.1004 441.318L102.162 438.787V433.22C102.499 421.072 93.6587 393.336 55.5976 379.57Z" fill="#81AEE3"/>
<path d="M-3.11353 380.076C11.2269 382.607 45.6776 391.616 68.7572 407.407" stroke="#B7D8FF"/>
<path d="M105.704 433.726C62.3796 411.456 33.665 334.018 24.7234 298.083C41.4257 302.3 81.5114 317.518 108.235 344.647C141.64 378.557 159.861 461.563 105.704 433.726Z" fill="#B7D8FF"/>
<path d="M60.1528 336.042L98.6188 375.014" stroke="#81AEE3"/>
<path d="M132.086 413.942C142.383 366.33 209.751 318.551 242.148 300.613C242.397 317.838 238.072 360.497 218.785 393.331C194.675 434.374 119.214 473.458 132.086 413.942Z" fill="#B7D8FF"/>
<path d="M208.915 345.499L150.244 402.725" stroke="#81AEE3"/>
<path d="M96.5935 374.002C102.312 322.006 149.063 269.57 173.526 250C175.888 257.423 178.284 289.377 168.971 357.806C159.658 426.235 134.385 440.643 122.912 439.293C104.692 432.207 91.027 424.615 96.5935 374.002Z" fill="#81AEE3"/>
<path d="M155.305 287.454C141.471 310.398 115.827 369.751 123.925 423.603" stroke="#B7D8FF"/>
<path d="M401 219.485L341.09 150.178C239.249 122.288 216.637 195.562 218.062 235.685C220.059 263.358 237.926 319.154 293.416 320.953C348.907 322.751 365.213 272.978 366.43 247.866C384.932 254.136 395.023 234.875 401 219.485Z" fill="#C8E1FF"/>
<path d="M313.33 162.027C298.936 174.94 253.353 178.168 232.361 178.168C230.098 191.905 228.525 225.938 240.34 252.175C252.154 278.413 276.043 286.002 286.511 286.517V322.061C273.882 324.259 245.149 332.936 232.361 337C179.4 301.01 201.128 226.648 218.612 193.966C196.036 187.841 183.135 141.937 206.051 114.12C248.085 63.0949 304.9 88.4783 326.74 106.393C351.455 95.2666 362.048 103.932 364.254 109.656C360.316 104.436 350.731 107.481 346.431 109.656C383.368 118.035 380.607 158.822 374.609 178.168C442.508 229.51 433.002 327.899 403.805 327.899C374.609 327.899 346.431 315.536 346.431 304.032C332.172 275.734 340.49 243.361 346.431 230.711C353.334 232.257 364.254 224.015 364.254 212.51C364.254 194.092 345.752 197.915 337.944 202.036C330.475 204.371 318.423 176.337 313.33 162.027Z" fill="#ACD2FF"/>
<path d="M356.652 313.679C349.989 309.002 343.565 264.611 341.185 243L292.773 280.317C302.291 303.017 271.867 330.188 275.266 334.144C313.339 362.209 351.383 347.041 366 334.144L356.652 313.679Z" fill="#C8E1FF"/>
<path d="M369 329C334.719 358.31 291.141 343.609 273.638 332.595C258.605 364.781 256.368 503.282 257.129 568.509C272.163 575.631 317.484 574.33 338.266 572.789L369 329Z" fill="#B7D8FF"/>
<path d="M468.697 344.915C456.786 330.812 387.409 315.762 354.21 310C367.49 366.686 341.603 529.874 327 604.382C382.036 607.942 441.088 595.254 463.734 588.465C485.639 487.69 463.62 397.002 449.872 364.255L468.697 344.915Z" fill="#87BEFF"/>
<path d="M450 365L406.463 413.411L432.415 426.411C422.074 445.976 407.569 473.835 393.277 502.021M345 605C348.542 591.31 370.205 547.522 393.277 502.021M393.277 502.021C397.673 526.197 405.951 574.311 405.951 600.723" stroke="#98C7FF" stroke-width="3" stroke-linecap="round"/>
<path d="M181.259 341.129C185.215 335.792 254.068 318.153 288 310C255.125 360.49 260.32 522.371 267.027 597L155 581.094L193.024 358.746L181.259 341.129Z" fill="#87BEFF"/>
<path d="M192.767 360L221.933 395.139L192.767 404.223L221.933 490.849M257 595L221.933 490.849M221.933 490.849C209.626 518.938 184.809 577.105 184 585.058" stroke="#98C7FF" stroke-width="3" stroke-linecap="round"/>
<path d="M355.728 205.336C352.834 205.44 346.932 207.172 346.473 213.264" stroke="#ACD2FF" stroke-linecap="round"/>
<ellipse cx="250.851" cy="218.826" rx="6.44446" ry="8.7808" transform="rotate(-6.87291 250.851 218.826)" fill="#ACD2FF"/>
<ellipse cx="300.596" cy="215.686" rx="6.44446" ry="8.7808" transform="rotate(-6.87291 300.596 215.686)" fill="#ACD2FF"/>
<path d="M289.56 193.705C294.242 191.537 305.283 188.37 311.983 193.055" stroke="#ACD2FF" stroke-width="3" stroke-linecap="round"/>
<path d="M237.573 202.002C240.473 196.714 250.796 194.438 257.449 198.919" stroke="#ACD2FF" stroke-width="3" stroke-linecap="round"/>
<path d="M267.79 205.946C269.367 211.898 271.181 226.486 265.814 237.221C264.895 239.597 266.192 243.898 278.733 242.097" stroke="#ACD2FF" stroke-width="3" stroke-linecap="round"/>
<path d="M294.314 250.172C292.107 253.824 284.536 261.058 271.906 260.778" stroke="#ACD2FF" stroke-width="3" stroke-linecap="round"/>
<path d="M299.027 210.209C301.751 212.3 307.167 208.434 309.534 206.24C309.775 210.411 305.011 214.289 302.598 215.706L299.027 210.209Z" fill="#ACD2FF"/>
<path d="M248.882 214.266C246.478 216.624 240.796 213.442 238.255 211.556C238.492 215.675 243.545 218.942 246.041 220.061L248.882 214.266Z" fill="#ACD2FF"/>
<path d="M345 270.059C335.085 283.201 310.368 290.149 288 285.612C336.364 277.059 341.92 250.945 341.114 245L345 270.059Z" fill="#ACD2FF"/>
</g>
<defs>
<clipPath id="clip0">
<rect width="570" height="569" rx="284.5" fill="white"/>
</clipPath>
</defs>
</svg>
