<svg width="2000" height="2000" viewBox="0 0 2000 2000" fill="none" xmlns="http://www.w3.org/2000/svg">
<rect width="2000" height="2000" fill="url(#paint0_linear)"/>
<path d="M1238.37 453C1349.81 453 1390.22 464.603 1430.96 486.391C1471.71 508.18 1503.68 540.154 1525.46 580.894C1547.26 621.635 1558.86 662.046 1558.86 773.486V953C1558.86 992.45 1526.88 1024.43 1487.43 1024.43C1447.98 1024.43 1416 992.45 1416 953V881.571H558.857L558.916 1076.34C559.469 1144.11 563.996 1165.05 575.365 1186.31C583.839 1202.15 595.42 1213.74 611.266 1222.21C634.041 1234.39 656.45 1238.71 736.486 1238.71H1201.71V1131.2C1201.71 1099.64 1227.3 1074.06 1258.86 1074.06C1270.14 1074.06 1281.16 1077.4 1290.56 1083.66L1558.96 1262.6C1585.23 1280.1 1592.32 1315.58 1574.81 1341.84C1570.63 1348.11 1565.24 1353.51 1558.96 1357.69L1290.56 1536.63C1264.29 1554.14 1228.81 1547.04 1211.31 1520.78C1205.05 1511.39 1201.71 1500.36 1201.71 1489.09V1381.57H736.486C625.046 1381.57 584.635 1369.97 543.894 1348.18C503.154 1326.39 471.18 1294.42 449.391 1253.68C427.603 1212.94 416 1172.53 416 1061.09V773.486C416 662.046 427.603 621.635 449.391 580.894C471.18 540.154 503.154 508.18 543.894 486.391C584.635 464.603 625.046 453 736.486 453H1238.37ZM1253.63 595.916L736.486 595.857C656.45 595.857 634.041 600.184 611.266 612.365C595.42 620.839 583.839 632.42 575.365 648.266C565.175 667.321 560.481 686.114 559.219 738.607H1415.64C1414.38 686.114 1409.68 667.321 1399.49 648.266C1391.02 632.42 1379.44 620.839 1363.59 612.365C1342.34 600.996 1321.4 596.469 1253.63 595.916Z" fill="white"/>
<defs>
<linearGradient id="paint0_linear" x1="0" y1="0" x2="2000" y2="2000" gradientUnits="userSpaceOnUse">
<stop stop-color="#81CECE"/>
<stop offset="1" stop-color="#6AC4C4"/>
</linearGradient>
</defs>
</svg>
