<svg width="2000" height="2000" viewBox="0 0 2000 2000" fill="none" xmlns="http://www.w3.org/2000/svg">
<rect width="2000" height="2000" fill="url(#paint0_linear)"/>
<path fill-rule="evenodd" clip-rule="evenodd" d="M1000.43 429C1316.02 429 1571.86 684.837 1571.86 1000.43C1571.86 1316.02 1316.02 1571.86 1000.43 1571.86C684.837 1571.86 429 1316.02 429 1000.43C429 684.837 684.837 429 1000.43 429ZM1010.96 675.734C999.171 669.914 984.9 674.756 979.079 686.547L888.471 870.143L685.864 899.579C680.681 900.336 675.892 902.771 672.237 906.521C663.059 915.936 663.251 931.014 672.668 940.193L819.271 1083.1L784.664 1284.89C783.779 1290.05 784.621 1295.36 787.057 1299.99C793.179 1311.63 807.571 1316.11 819.214 1309.99L1000.43 1214.71L1181.64 1309.99C1186.28 1312.42 1191.59 1313.26 1196.75 1312.38C1209.71 1310.16 1218.41 1297.85 1216.19 1284.89L1181.58 1083.1L1328.19 940.193C1331.94 936.536 1334.38 931.75 1335.14 926.564C1337.02 913.55 1328.01 901.471 1314.99 899.579L1112.39 870.143L1021.78 686.547C1019.46 681.851 1015.66 678.051 1010.96 675.734V675.734Z" fill="white"/>
<defs>
<linearGradient id="paint0_linear" x1="0" y1="0" x2="2000" y2="2000" gradientUnits="userSpaceOnUse">
<stop stop-color="#FFB333"/>
<stop offset="1" stop-color="#FFA40A"/>
</linearGradient>
</defs>
</svg>
