<svg width="2000" height="2000" viewBox="0 0 2000 2000" fill="none" xmlns="http://www.w3.org/2000/svg">
<rect width="2000" height="2000" fill="url(#paint0_linear)"/>
<path d="M1258.74 575C1317.65 575 1339.01 581.133 1360.54 592.65C1382.08 604.166 1398.98 621.067 1410.49 642.601C1422.01 664.136 1428.14 685.496 1428.14 744.4V1048.46C1428.14 1107.36 1422.01 1128.72 1410.49 1150.26C1398.98 1171.79 1382.08 1188.69 1360.54 1200.21C1339.01 1211.72 1317.65 1217.86 1258.74 1217.86H1035.21L867.907 1409.15C850.764 1428.74 820.979 1430.73 801.386 1413.58C791.157 1404.63 785.286 1391.7 785.286 1378.1V1217.86H740.4C681.496 1217.86 660.136 1211.72 638.601 1200.21C617.067 1188.69 600.166 1171.79 588.65 1150.26C577.133 1128.72 571 1107.36 571 1048.46V744.4C571 685.496 577.133 664.136 588.65 642.601C600.166 621.067 617.067 604.166 638.601 592.65C660.136 581.133 681.496 575 740.4 575H1258.74Z" fill="white"/>
<defs>
<linearGradient id="paint0_linear" x1="0" y1="0" x2="2000" y2="2000" gradientUnits="userSpaceOnUse">
<stop stop-color="#4BC44B"/>
<stop offset="1" stop-color="#36B636"/>
</linearGradient>
</defs>
</svg>
