<svg width="2000" height="2000" viewBox="0 0 2000 2000" fill="none" xmlns="http://www.w3.org/2000/svg">
<rect width="2000" height="2000" fill="url(#paint0_linear)"/>
<path d="M923.989 1313V1008.99C923.989 967.018 958.017 932.991 999.992 932.991C1041.97 932.991 1076 967.018 1076 1008.99V1313C1076 1354.97 1041.97 1389 999.992 1389C958.017 1389 923.989 1354.97 923.989 1313ZM905 723.986V686.001C905 644.027 939.028 610 981.003 610H1019C1060.97 610 1095 644.027 1095 686.001V723.986C1095 765.96 1060.97 799.987 1019 799.987H981.003C939.028 799.987 905 765.96 905 723.986Z" fill="white"/>
<defs>
<linearGradient id="paint0_linear" x1="0" y1="0" x2="2000" y2="2000" gradientUnits="userSpaceOnUse">
<stop stop-color="#4BC44B"/>
<stop offset="1" stop-color="#36B636"/>
</linearGradient>
</defs>
</svg>
