<svg width="221" height="239" viewBox="0 0 221 239" fill="none" xmlns="http://www.w3.org/2000/svg">
<rect x="1.5" y="1.5" width="218" height="236" rx="23.5" fill="#FEFEFE" stroke="#E1E2E6" stroke-width="3"/>
<rect x="218" y="111" width="3" height="128" fill="#E1E2E6"/>
<rect y="111" width="3" height="128" fill="#E1E2E6"/>
<rect x="3" y="179" width="215" height="60" fill="#FEFEFE"/>
<rect width="221" height="114" transform="translate(0 125)" fill="url(#paint0_linear)"/>
<rect x="83" y="20" width="56" height="5" rx="2.5" fill="#E1E2E6"/>
<path d="M166 159.686H157.204C156.652 159.686 156.204 160.133 156.204 160.686V169.482C156.204 170.034 155.756 170.482 155.204 170.482H151.686C151.134 170.482 150.686 170.929 150.686 171.482V175C150.686 175.552 151.134 176 151.686 176H160.482C161.034 176 161.482 175.552 161.482 175V171.482C161.482 170.929 161.93 170.482 162.482 170.482H166C166.552 170.482 167 170.034 167 169.482V160.686C167 160.133 166.552 159.686 166 159.686Z" fill="#E1E2E6"/>
<path d="M129.333 175V170.722C129.333 170.457 129.548 170.242 129.813 170.242H133.612C134.164 170.242 134.612 169.795 134.612 169.242V155.408C134.612 154.856 135.059 154.408 135.612 154.408H139.13C139.682 154.408 140.13 153.96 140.13 153.408V150.13C140.13 149.578 140.577 149.13 141.13 149.13H144.648C145.2 149.13 145.648 149.578 145.648 150.13V158.926C145.648 159.478 146.095 159.926 146.648 159.926H149.686C150.238 159.926 150.686 160.374 150.686 160.926V164.204C150.686 164.756 150.238 165.204 149.686 165.204H145.648H141.13C140.577 165.204 140.13 165.652 140.13 166.204V169.722C140.13 170.275 140.577 170.722 141.13 170.722H144.648C145.2 170.722 145.648 171.17 145.648 171.722V175C145.648 175.553 145.2 176 144.648 176H130.333C129.781 176 129.333 175.553 129.333 175Z" fill="#E1E2E6"/>
<path d="M166 111.463H157.204C156.652 111.463 156.204 111.911 156.204 112.463V116.221C156.204 116.773 156.652 117.221 157.204 117.221H160.482C161.034 117.221 161.482 117.669 161.482 118.221V121.259C161.482 121.811 161.93 122.259 162.482 122.259H166C166.552 122.259 167 121.811 167 121.259V112.463C167 111.911 166.552 111.463 166 111.463Z" fill="#E1E2E6"/>
<path d="M113.499 142.851V139.333C113.499 138.781 113.051 138.333 112.499 138.333H98.1847C97.6324 138.333 97.1847 138.781 97.1847 139.333V142.851C97.1847 143.403 97.6324 143.851 98.1847 143.851H101.463C102.015 143.851 102.463 144.299 102.463 144.851V148.369C102.463 148.921 102.015 149.369 101.463 149.369H98.1847C97.6324 149.369 97.1847 149.817 97.1847 150.369V158.925C97.1847 159.478 97.6324 159.925 98.1847 159.925H101.463C102.015 159.925 102.463 160.373 102.463 160.925V164.203C102.463 164.756 102.911 165.203 103.463 165.203H106.981C107.533 165.203 107.981 164.756 107.981 164.203V150.369C107.981 149.817 108.429 149.369 108.981 149.369H111.779C112.331 149.369 112.779 149.817 112.779 150.369V153.647C112.779 154.2 113.227 154.647 113.779 154.647H117.537C118.089 154.647 118.537 154.2 118.537 153.647V144.851C118.537 144.299 118.089 143.851 117.537 143.851H114.499C113.947 143.851 113.499 143.403 113.499 142.851Z" fill="#E1E2E6"/>
<path d="M123.055 154.647H119.537C118.985 154.647 118.537 155.095 118.537 155.647V158.926C118.537 159.478 118.089 159.926 117.537 159.926H113.779C113.227 159.926 112.779 160.373 112.779 160.926V164.444C112.779 164.996 113.227 165.444 113.779 165.444H123.055C123.607 165.444 124.055 164.996 124.055 164.444V155.647C124.055 155.095 123.607 154.647 123.055 154.647Z" fill="#E1E2E6"/>
<path d="M79.6325 65.5C85.1162 65.5 87.477 66.2181 88.6825 67.4236C89.888 68.6291 90.6061 70.99 90.6061 76.4736V88.3926C90.6061 93.8763 89.888 96.2371 88.6825 97.4426C87.477 98.6481 85.1162 99.3662 79.6325 99.3662H67.7135C62.2298 99.3662 59.869 98.6481 58.6635 97.4426C57.458 96.2371 56.7399 93.8763 56.7399 88.3926V76.4736C56.7399 70.99 57.458 68.6291 58.6635 67.4236C59.869 66.2181 62.2298 65.5 67.7135 65.5H79.6325Z" stroke="#E1E2E6" stroke-width="5"/>
<path fill-rule="evenodd" clip-rule="evenodd" d="M82.0701 79.8581C82.0701 75.1557 80.9505 74.0361 76.2481 74.0361H71.0979C66.3956 74.0361 65.276 75.1557 65.276 79.8581V85.0082C65.276 89.7106 66.3956 90.8302 71.0979 90.8302H76.2481C80.9505 90.8302 82.0701 89.7106 82.0701 85.0082V79.8581Z" fill="#E1E2E6"/>
<path fill-rule="evenodd" clip-rule="evenodd" d="M155.964 79.8581C155.964 75.1557 154.844 74.0361 150.142 74.0361H144.992C140.289 74.0361 139.17 75.1557 139.17 79.8581V85.0082C139.17 89.7106 140.289 90.8302 144.992 90.8302H150.142C154.844 90.8302 155.964 89.7106 155.964 85.0082V79.8581Z" fill="#E1E2E6"/>
<path fill-rule="evenodd" clip-rule="evenodd" d="M107.981 64.9961C107.981 63.3839 107.597 63 105.985 63H104.219C102.607 63 102.223 63.3839 102.223 64.9961V66.7619C102.223 68.3741 102.607 68.758 104.219 68.758H105.985C107.597 68.758 107.981 68.3741 107.981 66.7619V64.9961Z" fill="#E1E2E6"/>
<path d="M64.0361 111.703H55C54.4477 111.703 54 112.15 54 112.703V121.499C54 122.051 54.4477 122.499 55 122.499H58.518C59.0703 122.499 59.518 122.947 59.518 123.499V126.777C59.518 127.329 59.9658 127.777 60.518 127.777H64.0361C64.5884 127.777 65.0361 127.329 65.0361 126.777V112.703C65.0361 112.15 64.5884 111.703 64.0361 111.703Z" fill="#E1E2E6"/>
<path d="M69.0744 127.777H66.0361C65.4838 127.777 65.0361 128.225 65.0361 128.777V132.055C65.0361 132.607 65.4838 133.055 66.0361 133.055H74.8323C75.3846 133.055 75.8323 132.607 75.8323 132.055V128.777C75.8323 128.225 76.28 127.777 76.8323 127.777H79.8705C80.4228 127.777 80.8705 127.329 80.8705 126.777V123.259C80.8705 122.707 80.4228 122.259 79.8705 122.259H71.0743C70.5221 122.259 70.0743 122.707 70.0743 123.259V126.777C70.0743 127.329 69.6266 127.777 69.0744 127.777Z" fill="#E1E2E6"/>
<path d="M80.8705 121.259V112.703C80.8705 112.15 81.3182 111.703 81.8705 111.703H85.3885C85.9408 111.703 86.3885 112.15 86.3885 112.703V115.981C86.3885 116.533 86.8362 116.981 87.3885 116.981H90.6667C91.2189 116.981 91.6667 117.428 91.6667 117.981V121.259C91.6667 121.811 91.2189 122.259 90.6667 122.259H81.8705C81.3182 122.259 80.8705 121.811 80.8705 121.259Z" fill="#E1E2E6"/>
<path fill-rule="evenodd" clip-rule="evenodd" d="M92.1465 108.181C92.1465 106.568 91.7626 106.185 90.1504 106.185H88.3846C86.7724 106.185 86.3885 106.568 86.3885 108.181V109.946C86.3885 111.559 86.7724 111.943 88.3846 111.943H90.1504C91.7626 111.943 92.1465 111.559 92.1465 109.946V108.181Z" fill="#E1E2E6"/>
<path fill-rule="evenodd" clip-rule="evenodd" d="M91.6667 129.773C91.6667 128.161 91.2828 127.777 89.6706 127.777H87.9048C86.2926 127.777 85.9087 128.161 85.9087 129.773V131.539C85.9087 133.151 86.2926 133.535 87.9048 133.535H89.6706C91.2828 133.535 91.6667 133.151 91.6667 131.539V129.773Z" fill="#E1E2E6"/>
<path fill-rule="evenodd" clip-rule="evenodd" d="M59.9978 129.773C59.9978 128.161 59.614 127.777 58.0017 127.777H56.236C54.6237 127.777 54.2399 128.161 54.2399 129.773V131.539C54.2399 133.151 54.6237 133.535 56.236 133.535H58.0017C59.614 133.535 59.9978 133.151 59.9978 131.539V129.773Z" fill="#E1E2E6"/>
<path fill-rule="evenodd" clip-rule="evenodd" d="M129.573 167.2C129.573 165.587 129.189 165.204 127.577 165.204H125.811C124.199 165.204 123.815 165.587 123.815 167.2V168.965C123.815 170.578 124.199 170.962 125.811 170.962H127.577C129.189 170.962 129.573 170.578 129.573 168.965V167.2Z" fill="#E1E2E6"/>
<path fill-rule="evenodd" clip-rule="evenodd" d="M102.703 97.1445C102.703 95.5323 102.319 95.1484 100.707 95.1484H98.9409C97.3287 95.1484 96.9448 95.5323 96.9448 97.1445V98.9103C96.9448 100.523 97.3287 100.906 98.9409 100.906H100.707C102.319 100.906 102.703 100.523 102.703 98.9103V97.1445Z" fill="#E1E2E6"/>
<path fill-rule="evenodd" clip-rule="evenodd" d="M113.259 97.1445C113.259 95.5323 112.875 95.1484 111.263 95.1484H109.497C107.885 95.1484 107.501 95.5323 107.501 97.1445V98.9103C107.501 100.523 107.885 100.906 109.497 100.906H111.263C112.875 100.906 113.259 100.523 113.259 98.9103V97.1445Z" fill="#E1E2E6"/>
<path d="M155.964 107.425V111.223C155.964 111.488 155.749 111.703 155.484 111.703H151.926C151.373 111.703 150.926 112.151 150.926 112.703V120.779C150.926 121.332 150.478 121.779 149.926 121.779H146.408C145.855 121.779 145.408 121.332 145.408 120.779V117.261C145.408 116.709 144.96 116.261 144.408 116.261H140.89C140.337 116.261 139.89 116.709 139.89 117.261V121.259C139.89 121.811 140.337 122.259 140.89 122.259H144.408C144.96 122.259 145.408 122.707 145.408 123.259V126.537C145.408 127.09 145.855 127.537 146.408 127.537H154.964C155.516 127.537 155.964 127.09 155.964 126.537V123.259C155.964 122.707 156.412 122.259 156.964 122.259H160.242C160.794 122.259 161.242 122.707 161.242 123.259V127.017C161.242 127.569 161.69 128.017 162.242 128.017H166C166.552 128.017 167 128.465 167 129.017V142.852C167 143.404 166.552 143.852 166 143.852H162.242C161.69 143.852 161.242 143.404 161.242 142.852V139.813C161.242 139.261 160.794 138.813 160.242 138.813H156.964C156.412 138.813 155.964 139.261 155.964 139.813V148.13C155.964 148.682 156.412 149.13 156.964 149.13H160.242C160.794 149.13 161.242 149.577 161.242 150.13V153.408C161.242 153.96 160.794 154.408 160.242 154.408H151.446C150.894 154.408 150.446 153.96 150.446 153.408V144.852C150.446 144.299 149.998 143.852 149.446 143.852H146.408C145.855 143.852 145.408 143.404 145.408 142.852V139.094C145.408 138.541 145.855 138.094 146.408 138.094H149.446C149.998 138.094 150.446 137.646 150.446 137.094V134.295C150.446 133.743 149.998 133.295 149.446 133.295H130.093C129.541 133.295 129.093 132.848 129.093 132.295V128.537C129.093 127.985 129.541 127.537 130.093 127.537H133.611C134.164 127.537 134.611 127.09 134.611 126.537V123.259C134.611 122.707 134.164 122.259 133.611 122.259H130.093C129.541 122.259 129.093 121.811 129.093 121.259V117.261C129.093 116.709 129.541 116.261 130.093 116.261H133.611C134.164 116.261 134.611 115.814 134.611 115.261V112.223C134.611 111.671 135.059 111.223 135.611 111.223H144.408C144.96 111.223 145.408 110.775 145.408 110.223V107.425C145.408 106.873 145.855 106.425 146.408 106.425H154.964C155.516 106.425 155.964 106.873 155.964 107.425Z" fill="#E1E2E6"/>
<path fill-rule="evenodd" clip-rule="evenodd" d="M82.0701 154.232C82.0701 149.529 80.9505 148.41 76.2481 148.41H71.0979C66.3956 148.41 65.276 149.529 65.276 154.232V159.382C65.276 164.084 66.3956 165.204 71.0979 165.204H76.2481C80.9505 165.204 82.0701 164.084 82.0701 159.382V154.232Z" fill="#E1E2E6"/>
<path d="M153.526 65.5C159.01 65.5 161.371 66.2181 162.576 67.4236C163.782 68.6291 164.5 70.99 164.5 76.4736V88.3926C164.5 93.8763 163.782 96.2371 162.576 97.4426C161.371 98.6481 159.01 99.3662 153.526 99.3662H141.607C136.124 99.3662 133.763 98.6481 132.557 97.4426C131.352 96.2371 130.634 93.8763 130.634 88.3926V76.4736C130.634 70.99 131.352 68.6291 132.557 67.4236C133.763 66.2181 136.124 65.5 141.607 65.5H153.526Z" stroke="#E1E2E6" stroke-width="5"/>
<path d="M79.6325 139.874C85.1162 139.874 87.477 140.592 88.6825 141.797C89.888 143.003 90.6061 145.363 90.6061 150.847V162.766C90.6061 168.25 89.888 170.611 88.6825 171.816C87.477 173.022 85.1162 173.74 79.6325 173.74H67.7135C62.2298 173.74 59.869 173.022 58.6635 171.816C57.458 170.611 56.7399 168.25 56.7399 162.766V150.847C56.7399 145.363 57.458 143.003 58.6635 141.797C59.869 140.592 62.2298 139.874 67.7135 139.874H79.6325Z" stroke="#E1E2E6" stroke-width="5"/>
<path d="M107.981 69.998V73.0363C107.981 73.5885 107.533 74.0363 106.981 74.0363H98.1847C97.6324 74.0363 97.1847 74.484 97.1847 75.0363V84.0724C97.1847 84.6246 97.6324 85.0724 98.1847 85.0724H101.463C102.015 85.0724 102.463 85.5201 102.463 86.0724V94.3887C102.463 94.941 102.911 95.3887 103.463 95.3887H106.981C107.533 95.3887 107.981 94.941 107.981 94.3887V91.3505C107.981 90.7982 108.429 90.3505 108.981 90.3505H112.259C112.811 90.3505 113.259 90.7982 113.259 91.3505V94.8685C113.259 95.4208 113.707 95.8685 114.259 95.8685H117.537C118.089 95.8685 118.537 96.3162 118.537 96.8685V100.147C118.537 100.699 118.985 101.147 119.537 101.147H122.815C123.368 101.147 123.815 100.699 123.815 100.147V91.1106C123.815 90.5583 123.368 90.1106 122.815 90.1106H119.537C118.985 90.1106 118.537 89.6629 118.537 89.1106V85.8324C118.537 85.2802 118.089 84.8324 117.537 84.8324H114.499C113.947 84.8324 113.499 84.3847 113.499 83.8324V80.7942C113.499 80.2419 113.947 79.7942 114.499 79.7942H117.777C118.329 79.7942 118.777 80.2419 118.777 80.7942V83.8324C118.777 84.3847 119.225 84.8324 119.777 84.8324H122.815C123.368 84.8324 123.815 84.3847 123.815 83.8324V75.0363C123.815 74.484 123.368 74.0363 122.815 74.0363H119.537C118.985 74.0363 118.537 73.5885 118.537 73.0363V69.998C118.537 69.4458 118.089 68.998 117.537 68.998H108.981C108.429 68.998 107.981 69.4458 107.981 69.998Z" fill="#E1E2E6"/>
<rect x="70.0743" y="106.185" width="11.0361" height="5.75796" rx="1" fill="#E1E2E6"/>
<rect x="107.501" y="170.482" width="16.7941" height="5.75796" rx="1" fill="#E1E2E6"/>
<path d="M133.851 138.333H125.055C124.503 138.333 124.055 138.781 124.055 139.333V148.129C124.055 148.681 124.503 149.129 125.055 149.129H128.333C128.886 149.129 129.333 149.577 129.333 150.129V153.407C129.333 153.96 129.781 154.407 130.333 154.407H133.851C134.404 154.407 134.851 153.96 134.851 153.407V139.333C134.851 138.781 134.404 138.333 133.851 138.333Z" fill="#E1E2E6"/>
<path d="M130.068 107.81C130.068 98.2712 127.797 96 118.258 96H107.81C98.2712 96 96 98.2712 96 107.81V113.034L98.4141 112.174L101.536 113.208L103.507 112.5C102.002 109.768 101.536 107.838 101.536 107.349C101.536 106.98 101.678 106.646 102.388 106.646H104.872C105.507 106.646 105.746 106.924 105.984 107.612C106.693 109.68 107.688 111.595 108.56 112.83L110.55 112.174V109.638C110.493 108.597 110.129 108.147 109.86 107.813C109.693 107.607 109.563 107.446 109.563 107.217C109.563 106.939 109.8 106.646 110.195 106.646H114.099C114.625 106.646 114.808 106.928 114.808 107.559V112.481C114.808 112.577 114.816 112.661 114.829 112.736L116.572 112.174C118.245 110.178 119.406 107.349 119.406 107.349C119.564 106.98 119.855 106.646 120.486 106.646H122.97C123.722 106.646 123.88 107.033 123.722 107.559C123.475 108.692 121.569 111.546 120.751 112.737L122.414 112.174L125.414 113.27L128.414 112.174L130.068 113.27V107.81Z" fill="#2686F4"/>
<path fill-rule="evenodd" clip-rule="evenodd" d="M118.258 138.164C127.797 138.164 130.068 135.892 130.068 126.353V121.366L128.414 120.27L125.414 121.366L122.414 120.27L120.794 120.818L120.424 121.303L120.379 121.366C120.116 121.787 120.011 121.998 120.379 122.471C120.509 122.653 120.786 122.924 121.103 123.234C121.429 123.554 121.796 123.914 122.09 124.261C123.157 125.461 123.961 126.474 124.185 127.172C124.39 127.872 124.035 128.227 123.325 128.227H120.841C120.176 128.227 119.841 127.854 119.117 127.049C118.81 126.708 118.433 126.289 117.932 125.787C116.458 124.366 115.826 124.182 115.458 124.182C114.958 124.182 114.808 124.324 114.808 125.033V127.261C114.808 127.872 114.613 128.227 113.034 128.227C110.402 128.227 107.51 126.629 105.457 123.682C105.008 123.011 104.089 121.612 103.647 120.847C103.599 120.763 103.552 120.679 103.507 120.596L101.536 121.303L98.4141 120.27L96 121.13V126.353C96 135.892 98.2712 138.164 107.81 138.164H118.258ZM108.56 120.926C109.18 121.805 109.739 122.34 110.089 122.34C110.405 122.34 110.55 122.194 110.55 121.392V120.27L108.56 120.926ZM114.829 120.831C114.863 121.02 114.935 121.141 115.014 121.211C115.061 121.257 115.121 121.287 115.195 121.287C115.511 121.287 115.774 121.103 116.353 120.524C116.427 120.441 116.5 120.356 116.572 120.27L114.829 120.831Z" fill="#2686F4"/>
<defs>
<linearGradient id="paint0_linear" x1="0" y1="0" x2="0" y2="114" gradientUnits="userSpaceOnUse">
<stop stop-color="white" stop-opacity="0.01"/>
<stop offset="0.0921793" stop-color="white" stop-opacity="0.0156863"/>
<stop offset="0.187638" stop-color="white" stop-opacity="0.054902"/>
<stop offset="0.284759" stop-color="white" stop-opacity="0.117647"/>
<stop offset="0.381924" stop-color="white" stop-opacity="0.2"/>
<stop offset="0.477515" stop-color="white" stop-opacity="0.290196"/>
<stop offset="0.569913" stop-color="white" stop-opacity="0.392157"/>
<stop offset="0.6575" stop-color="white" stop-opacity="0.501961"/>
<stop offset="0.738659" stop-color="white" stop-opacity="0.607843"/>
<stop offset="0.811771" stop-color="white" stop-opacity="0.709804"/>
<stop offset="0.875219" stop-color="white" stop-opacity="0.8"/>
<stop offset="0.927383" stop-color="white" stop-opacity="0.882353"/>
<stop offset="0.966647" stop-color="white" stop-opacity="0.945098"/>
<stop offset="0.991392" stop-color="white" stop-opacity="0.984314"/>
<stop offset="1" stop-color="white"/>
</linearGradient>
</defs>
</svg>
