<svg width="261" height="154" viewBox="0 0 261 154" fill="none" xmlns="http://www.w3.org/2000/svg">
<path d="M29.7194 111V99.1H36.3194V111H38.7194V96.9H27.3194V111H29.7194ZM44.1939 115.1V109.42C44.9139 110.28 46.2139 111.2 48.0339 111.2C51.0139 111.2 53.1139 108.94 53.1139 105.8C53.1139 102.66 51.0139 100.4 48.0339 100.4C46.1339 100.4 44.8139 101.4 44.0939 102.28L43.6139 100.6H41.8939V115.1H44.1939ZM47.4739 109.14C45.5339 109.14 44.1939 107.76 44.1939 105.8C44.1939 103.84 45.5339 102.46 47.4739 102.46C49.3939 102.46 50.7139 103.84 50.7139 105.8C50.7139 107.76 49.3939 109.14 47.4739 109.14ZM65.6966 105.68C65.6966 102.68 63.4566 100.4 60.2966 100.4C57.1366 100.4 54.8966 102.66 54.8966 105.8C54.8966 108.94 57.1366 111.2 60.2966 111.2C62.4566 111.2 64.4966 110.18 65.2766 108.2L63.1166 107.84C62.6166 108.58 61.6566 109.1 60.4366 109.1C58.6766 109.1 57.5166 108.02 57.2966 106.42H65.6566C65.6766 106.2 65.6966 105.96 65.6966 105.68ZM60.2966 102.4C61.7366 102.4 62.8166 103.32 63.1966 104.62H57.4366C57.8166 103.28 58.8966 102.4 60.2966 102.4ZM68.6781 114.1V111H76.1581V114.1H78.4581V108.9H76.6581V100.6H69.0381L68.5181 105.92C68.3381 107.8 67.7781 108.9 66.6381 108.9H66.3781V114.1H68.6781ZM69.8781 108.9C70.4381 108.36 70.6781 107.44 70.8381 105.88L71.1581 102.7H74.3581V108.9H69.8781ZM84.4809 100.4C82.4609 100.4 80.6809 101.44 80.1609 103.24L82.2809 103.6C82.6009 102.96 83.3209 102.36 84.3609 102.36C85.6209 102.36 86.3609 103.26 86.4609 104.62H84.2209C81.1609 104.62 79.6409 105.96 79.6409 107.88C79.6409 109.82 81.1409 111.2 83.2609 111.2C84.9609 111.2 86.1009 110.22 86.6009 109.36L87.0809 111H88.7809V105.16C88.7809 102.14 87.1409 100.4 84.4809 100.4ZM83.8009 109.26C82.6809 109.26 81.9609 108.68 81.9609 107.78C81.9609 106.98 82.5409 106.42 84.3009 106.42H86.4809C86.4809 108.12 85.4009 109.26 83.8009 109.26ZM98.6161 104.7H93.9561V100.6H91.6561V111H93.9561V106.8H98.6161V111H100.916V100.6H98.6161V104.7ZM110.852 104.7H106.192V100.6H103.892V111H106.192V106.8H110.852V111H113.152V100.6H110.852V104.7ZM120.047 111C122.527 111 124.287 109.46 124.287 107.28C124.287 105.1 122.547 103.56 120.047 103.56H118.427V100.6H116.127V111H120.047ZM127.827 111V100.6H125.527V111H127.827ZM118.427 105.56H120.047C121.187 105.56 121.987 106.26 121.987 107.28C121.987 108.3 121.187 109 120.047 109H118.427V105.56ZM133.004 111V103.28H133.324L135.924 111H137.864L140.584 103.28H140.904V111H143.104V100.6H139.604L137.104 107.74H136.784L134.384 100.6H130.804V111H133.004ZM154.531 111L158.411 103.28H158.731V111H160.931V100.6H157.671L153.791 108.32H153.471V100.6H151.271V111H154.531ZM166.217 111V102.7H171.017V100.6H163.917V111H166.217ZM175.19 115.1V109.42C175.91 110.28 177.21 111.2 179.03 111.2C182.01 111.2 184.11 108.94 184.11 105.8C184.11 102.66 182.01 100.4 179.03 100.4C177.13 100.4 175.81 101.4 175.09 102.28L174.61 100.6H172.89V115.1H175.19ZM178.47 109.14C176.53 109.14 175.19 107.76 175.19 105.8C175.19 103.84 176.53 102.46 178.47 102.46C180.39 102.46 181.71 103.84 181.71 105.8C181.71 107.76 180.39 109.14 178.47 109.14ZM191.453 111.2C194.713 111.2 197.013 108.96 197.013 105.8C197.013 102.64 194.713 100.4 191.453 100.4C188.193 100.4 185.893 102.64 185.893 105.8C185.893 108.96 188.193 111.2 191.453 111.2ZM191.453 109.1C189.573 109.1 188.293 107.76 188.293 105.8C188.293 103.84 189.573 102.5 191.453 102.5C193.333 102.5 194.613 103.84 194.613 105.8C194.613 107.76 193.333 109.1 191.453 109.1ZM208.872 111L204.092 105.6L208.472 100.6H205.732L202.252 104.64H201.692V100.6H199.392V111H201.692V106.86H202.252L205.852 111H208.872ZM214.403 100.4C212.383 100.4 210.603 101.44 210.083 103.24L212.203 103.6C212.523 102.96 213.243 102.36 214.283 102.36C215.543 102.36 216.283 103.26 216.383 104.62H214.143C211.083 104.62 209.563 105.96 209.563 107.88C209.563 109.82 211.063 111.2 213.183 111.2C214.883 111.2 216.023 110.22 216.523 109.36L217.003 111H218.703V105.16C218.703 102.14 217.063 100.4 214.403 100.4ZM213.723 109.26C212.603 109.26 211.883 108.68 211.883 107.78C211.883 106.98 212.463 106.42 214.223 106.42H216.403C216.403 108.12 215.323 109.26 213.723 109.26ZM223.778 111V103.28H224.098L226.698 111H228.638L231.358 103.28H231.678V111H233.878V100.6H230.378L227.878 107.74H227.558L225.158 100.6H221.578V111H223.778Z" fill="#2E7FDF"/>
<rect y="121.009" width="261" height="32.4273" rx="7" fill="#2E7FDF"/>
<path d="M39.105 138.36V136.36H24.105V138.36H39.105ZM54.0266 137.6C54.9266 137.18 55.5066 136.48 55.5066 135.4C55.5066 133.76 54.0066 132.6 51.8466 132.6H46.8666V143H52.0666C54.3066 143 55.8666 141.78 55.8666 140.12C55.8666 138.86 55.0466 137.92 54.0266 137.6ZM51.8466 134.5C52.6466 134.5 53.2066 134.98 53.2066 135.64C53.2066 136.3 52.6466 136.76 51.8466 136.76H49.1666V134.5H51.8466ZM49.1666 141.1V138.56H52.0666C52.9666 138.56 53.5666 139.08 53.5666 139.84C53.5666 140.6 52.9666 141.1 52.0666 141.1H49.1666ZM63.1603 143.2C65.3403 143.2 67.4003 142.08 68.1803 139.9L66.0203 139.54C65.5603 140.46 64.5403 141.1 63.3003 141.1C61.4403 141.1 60.1403 139.74 60.1403 137.8C60.1403 135.86 61.4403 134.5 63.3003 134.5C64.5003 134.5 65.5003 135.12 65.9403 136.02L68.1003 135.66C67.3403 133.52 65.3803 132.4 63.1603 132.4C59.9803 132.4 57.7403 134.66 57.7403 137.8C57.7403 140.94 59.9803 143.2 63.1603 143.2ZM72.8056 131.12C73.6256 131.12 74.2256 130.54 74.2256 129.72C74.2256 128.9 73.6256 128.3 72.8056 128.3C71.9656 128.3 71.3656 128.9 71.3656 129.72C71.3656 130.54 71.9656 131.12 72.8056 131.12ZM77.0256 131.12C77.8456 131.12 78.4456 130.54 78.4456 129.72C78.4456 128.9 77.8456 128.3 77.0256 128.3C76.1856 128.3 75.5856 128.9 75.5856 129.72C75.5856 130.54 76.1856 131.12 77.0256 131.12ZM80.3656 137.68C80.3656 134.68 78.1256 132.4 74.9656 132.4C71.8056 132.4 69.5656 134.66 69.5656 137.8C69.5656 140.94 71.8056 143.2 74.9656 143.2C77.1256 143.2 79.1656 142.18 79.9456 140.2L77.7856 139.84C77.2856 140.58 76.3256 141.1 75.1056 141.1C73.3456 141.1 72.1856 140.02 71.9656 138.42H80.3256C80.3456 138.2 80.3656 137.96 80.3656 137.68ZM74.9656 134.4C76.4056 134.4 77.4856 135.32 77.8656 136.62H72.1056C72.4856 135.28 73.5656 134.4 74.9656 134.4ZM92.5425 143.2C94.7225 143.2 96.7825 142.08 97.5625 139.9L95.4025 139.54C94.9425 140.46 93.9225 141.1 92.6825 141.1C90.8225 141.1 89.5225 139.74 89.5225 137.8C89.5225 135.86 90.8225 134.5 92.6825 134.5C93.8825 134.5 94.8825 135.12 95.3225 136.02L97.4825 135.66C96.7225 133.52 94.7625 132.4 92.5425 132.4C89.3625 132.4 87.1225 134.66 87.1225 137.8C87.1225 140.94 89.3625 143.2 92.5425 143.2ZM103.788 132.4C101.768 132.4 99.9878 133.44 99.4678 135.24L101.588 135.6C101.908 134.96 102.628 134.36 103.668 134.36C104.928 134.36 105.668 135.26 105.768 136.62H103.528C100.468 136.62 98.9478 137.96 98.9478 139.88C98.9478 141.82 100.448 143.2 102.568 143.2C104.268 143.2 105.408 142.22 105.908 141.36L106.388 143H108.088V137.16C108.088 134.14 106.448 132.4 103.788 132.4ZM103.108 141.26C101.988 141.26 101.268 140.68 101.268 139.78C101.268 138.98 101.848 138.42 103.608 138.42H105.788C105.788 140.12 104.708 141.26 103.108 141.26ZM113.163 143V135.28H113.483L116.083 143H118.023L120.743 135.28H121.063V143H123.263V132.6H119.763L117.263 139.74H116.943L114.543 132.6H110.963V143H113.163ZM131.205 143.2C134.465 143.2 136.765 140.96 136.765 137.8C136.765 134.64 134.465 132.4 131.205 132.4C127.945 132.4 125.645 134.64 125.645 137.8C125.645 140.96 127.945 143.2 131.205 143.2ZM131.205 141.1C129.325 141.1 128.045 139.76 128.045 137.8C128.045 135.84 129.325 134.5 131.205 134.5C133.085 134.5 134.365 135.84 134.365 137.8C134.365 139.76 133.085 141.1 131.205 141.1ZM149.345 137.68C149.345 134.68 147.105 132.4 143.945 132.4C140.785 132.4 138.545 134.66 138.545 137.8C138.545 140.94 140.785 143.2 143.945 143.2C146.105 143.2 148.145 142.18 148.925 140.2L146.765 139.84C146.265 140.58 145.305 141.1 144.085 141.1C142.325 141.1 141.165 140.02 140.945 138.42H149.305C149.325 138.2 149.345 137.96 149.345 137.68ZM143.945 134.4C145.385 134.4 146.465 135.32 146.845 136.62H141.085C141.465 135.28 142.545 134.4 143.945 134.4ZM161.522 143.2C163.702 143.2 165.762 142.08 166.542 139.9L164.382 139.54C163.922 140.46 162.902 141.1 161.662 141.1C159.802 141.1 158.502 139.74 158.502 137.8C158.502 135.86 159.802 134.5 161.662 134.5C162.862 134.5 163.862 135.12 164.302 136.02L166.462 135.66C165.702 133.52 163.742 132.4 161.522 132.4C158.342 132.4 156.102 134.66 156.102 137.8C156.102 140.94 158.342 143.2 161.522 143.2ZM169.276 139.12C169.196 140.38 168.816 140.86 167.796 140.86C167.616 140.86 167.176 140.86 166.936 140.84L167.156 143.04C167.496 143.08 167.836 143.1 168.076 143.1C170.156 143.1 171.416 141.64 171.556 139.08L171.796 134.7H174.976V143H177.276V132.6H169.656L169.276 139.12ZM184.495 132.4C182.475 132.4 180.695 133.44 180.175 135.24L182.295 135.6C182.615 134.96 183.335 134.36 184.375 134.36C185.635 134.36 186.375 135.26 186.475 136.62H184.235C181.175 136.62 179.655 137.96 179.655 139.88C179.655 141.82 181.155 143.2 183.275 143.2C184.975 143.2 186.115 142.22 186.615 141.36L187.095 143H188.795V137.16C188.795 134.14 187.155 132.4 184.495 132.4ZM183.815 141.26C182.695 141.26 181.975 140.68 181.975 139.78C181.975 138.98 182.555 138.42 184.315 138.42H186.495C186.495 140.12 185.415 141.26 183.815 141.26ZM192.675 146.1V143H200.155V146.1H202.455V140.9H200.655V132.6H193.035L192.515 137.92C192.335 139.8 191.775 140.9 190.635 140.9H190.375V146.1H192.675ZM193.875 140.9C194.435 140.36 194.675 139.44 194.835 137.88L195.155 134.7H198.355V140.9H193.875ZM213.913 143L209.133 137.6L213.513 132.6H210.773L207.293 136.64H206.733V132.6H204.433V143H206.733V138.86H207.293L210.893 143H213.913ZM220.163 143.2C223.423 143.2 225.723 140.96 225.723 137.8C225.723 134.64 223.423 132.4 220.163 132.4C216.903 132.4 214.603 134.64 214.603 137.8C214.603 140.96 216.903 143.2 220.163 143.2ZM220.163 141.1C218.283 141.1 217.003 139.76 217.003 137.8C217.003 135.84 218.283 134.5 220.163 134.5C222.043 134.5 223.323 135.84 223.323 137.8C223.323 139.76 222.043 141.1 220.163 141.1ZM238.303 137.68C238.303 134.68 236.063 132.4 232.903 132.4C229.743 132.4 227.503 134.66 227.503 137.8C227.503 140.94 229.743 143.2 232.903 143.2C235.063 143.2 237.103 142.18 237.883 140.2L235.723 139.84C235.223 140.58 234.263 141.1 233.043 141.1C231.283 141.1 230.123 140.02 229.903 138.42H238.263C238.283 138.2 238.303 137.96 238.303 137.68ZM232.903 134.4C234.343 134.4 235.423 135.32 235.803 136.62H230.043C230.423 135.28 231.503 134.4 232.903 134.4Z" fill="white"/>
<path d="M170.046 39.5455C170.046 61.3858 152.34 79.0909 130.5 79.0909C108.66 79.0909 90.9546 61.3858 90.9546 39.5455C90.9546 17.7051 108.66 0 130.5 0C152.34 0 170.046 17.7051 170.046 39.5455ZM119.632 39.5455C119.632 45.5478 124.498 50.4138 130.5 50.4138C136.502 50.4138 141.368 45.5478 141.368 39.5455C141.368 33.5431 136.502 28.6772 130.5 28.6772C124.498 28.6772 119.632 33.5431 119.632 39.5455Z" fill="#FFBF4A"/>
<path fill-rule="evenodd" clip-rule="evenodd" d="M103.487 23.5294C103.487 18.0055 105.234 9.46405 117.405 6.11211C121.462 4.99481 129.22 6.56931 131.079 7.91585C132.413 8.62982 135.877 9.62938 139.062 7.91585C143.044 5.77393 151.253 6.52548 153.469 8.93046L153.525 8.99094C155.713 11.3651 157.342 13.1319 157.733 18.9261C158.127 24.7695 160.175 28.5648 161.978 30.0867C163.781 31.6086 169.913 39.2265 161.978 50.2848C159.412 53.8615 157.952 55.5673 156.764 56.9551L156.764 56.9553C154.857 59.1834 153.652 60.5921 149.694 67.6081C148.135 69.6248 143.935 73.489 139.607 72.8126C135.279 72.1362 129.301 72.869 126.853 73.3199C120.129 73.3199 113.277 71.6402 107.807 61.8399C107.766 61.7927 107.702 61.6596 107.606 61.4588L107.606 61.4587C107.092 60.3791 105.646 57.3431 101.702 55.1886C97.0252 52.6334 92.8929 46.4518 96.2363 38.9363C97.3559 36.6705 98.4622 34.9467 99.4667 33.3815C101.378 30.4038 102.92 27.9998 103.487 23.5294ZM130.501 50.2219C124.604 50.2219 119.824 45.4419 119.824 39.5455C119.824 33.6491 124.604 28.8692 130.501 28.8692C136.397 28.8692 141.177 33.6491 141.177 39.5455C141.177 45.4419 136.397 50.2219 130.501 50.2219Z" fill="white"/>
<rect x="123.272" y="11.2583" width="3.32667" height="5.913" rx="1.66333" transform="rotate(-47.8466 123.272 11.2583)" fill="#948AFF"/>
<rect x="130.887" y="22.1135" width="3.32667" height="5.913" rx="1.66333" transform="rotate(-64.3745 130.887 22.1135)" fill="#BEDBFF"/>
<rect x="117.528" y="25.2725" width="3.32667" height="5.913" rx="1.66333" transform="rotate(6.04877 117.528 25.2725)" fill="#B5E784"/>
<rect x="104.395" y="22.686" width="3.32667" height="5.913" rx="1.66333" transform="rotate(-24.9477 104.395 22.686)" fill="#BEDBFF"/>
<rect x="143.732" y="29.7139" width="3.32667" height="5.913" rx="1.66333" transform="rotate(4.58644 143.732 29.7139)" fill="#FF66AC"/>
<rect x="154.049" y="32.7878" width="3.32667" height="5.913" rx="1.66333" transform="rotate(-28.5379 154.049 32.7878)" fill="#B5E784"/>
<rect x="143.891" y="45.9939" width="3.32667" height="5.913" rx="1.66333" transform="rotate(58.9193 143.891 45.9939)" fill="#FFDD63"/>
<rect x="157.929" y="51.4988" width="3.32667" height="5.913" rx="1.66333" transform="rotate(113.195 157.929 51.4988)" fill="#BEDBFF"/>
<rect x="145.118" y="55.8904" width="3.32667" height="5.913" rx="1.66333" transform="rotate(13.0309 145.118 55.8904)" fill="#948AFF"/>
<rect x="132.226" y="62.4167" width="3.32667" height="5.913" rx="1.66333" transform="rotate(33.6385 132.226 62.4167)" fill="#BEDBFF"/>
<rect x="120.18" y="63.5396" width="3.32667" height="5.913" rx="1.66333" transform="rotate(33.6385 120.18 63.5396)" fill="#948AFF"/>
<rect x="109.663" y="61.2705" width="3.32667" height="5.913" rx="1.66333" transform="rotate(-67.6082 109.663 61.2705)" fill="#FFDD63"/>
<path d="M170.046 39.5455C170.046 61.3858 152.34 79.0909 130.5 79.0909C108.66 79.0909 90.9546 61.3858 90.9546 39.5455C90.9546 17.7051 108.66 0 130.5 0C152.34 0 170.046 17.7051 170.046 39.5455ZM119.632 39.5455C119.632 45.5478 124.498 50.4138 130.5 50.4138C136.502 50.4138 141.368 45.5478 141.368 39.5455C141.368 33.5431 136.502 28.6772 130.5 28.6772C124.498 28.6772 119.632 33.5431 119.632 39.5455Z" fill="#FEBF4C"/>
<path fill-rule="evenodd" clip-rule="evenodd" d="M103.487 23.5294C103.487 18.0055 105.234 9.46405 117.405 6.11211C121.462 4.99481 129.22 6.56931 131.079 7.91585C132.413 8.62982 135.877 9.62938 139.062 7.91585C143.044 5.77393 151.253 6.52548 153.469 8.93046L153.525 8.99094C155.713 11.3651 157.342 13.1319 157.733 18.9261C158.127 24.7695 160.175 28.5648 161.978 30.0867C163.781 31.6086 169.913 39.2265 161.978 50.2848C159.412 53.8615 157.952 55.5673 156.764 56.9551L156.764 56.9553C154.857 59.1834 153.652 60.5921 149.694 67.6081C148.135 69.6248 143.935 73.489 139.607 72.8126C135.279 72.1362 129.301 72.869 126.853 73.3199C120.129 73.3199 113.277 71.6402 107.807 61.8399C107.766 61.7927 107.702 61.6596 107.606 61.4588L107.606 61.4587C107.092 60.3791 105.646 57.3431 101.702 55.1886C97.0252 52.6334 92.8929 46.4518 96.2363 38.9363C97.3559 36.6705 98.4622 34.9467 99.4667 33.3815C101.378 30.4038 102.92 27.9998 103.487 23.5294ZM130.501 50.2219C124.604 50.2219 119.824 45.4419 119.824 39.5455C119.824 33.6491 124.604 28.8692 130.501 28.8692C136.397 28.8692 141.177 33.6491 141.177 39.5455C141.177 45.4419 136.397 50.2219 130.501 50.2219Z" fill="#9A4F48"/>
<rect x="123.272" y="11.2583" width="3.32667" height="5.913" rx="1.66333" transform="rotate(-47.8466 123.272 11.2583)" fill="#948AFF"/>
<rect x="130.887" y="22.1135" width="3.32667" height="5.913" rx="1.66333" transform="rotate(-64.3745 130.887 22.1135)" fill="#BEDBFF"/>
<rect x="117.528" y="25.2725" width="3.32667" height="5.913" rx="1.66333" transform="rotate(6.04877 117.528 25.2725)" fill="#B5E784"/>
<rect x="104.395" y="22.686" width="3.32667" height="5.913" rx="1.66333" transform="rotate(-24.9477 104.395 22.686)" fill="#BEDBFF"/>
<rect x="143.732" y="29.7139" width="3.32667" height="5.913" rx="1.66333" transform="rotate(4.58644 143.732 29.7139)" fill="#FF66AC"/>
<rect x="154.049" y="32.7878" width="3.32667" height="5.913" rx="1.66333" transform="rotate(-28.5379 154.049 32.7878)" fill="#B5E784"/>
<rect x="143.891" y="45.9939" width="3.32667" height="5.913" rx="1.66333" transform="rotate(58.9193 143.891 45.9939)" fill="#FFDD63"/>
<rect x="157.929" y="51.4988" width="3.32667" height="5.913" rx="1.66333" transform="rotate(113.195 157.929 51.4988)" fill="#BEDBFF"/>
<rect x="145.118" y="55.8904" width="3.32667" height="5.913" rx="1.66333" transform="rotate(13.0309 145.118 55.8904)" fill="#948AFF"/>
<rect x="132.226" y="62.4167" width="3.32667" height="5.913" rx="1.66333" transform="rotate(33.6385 132.226 62.4167)" fill="#BEDBFF"/>
<rect x="120.18" y="63.5396" width="3.32667" height="5.913" rx="1.66333" transform="rotate(33.6385 120.18 63.5396)" fill="#948AFF"/>
<rect x="109.663" y="61.2705" width="3.32667" height="5.913" rx="1.66333" transform="rotate(-67.6082 109.663 61.2705)" fill="#FFDD63"/>
</svg>
